<svg width="27" height="27" viewBox="0 0 27 27" fill="none" xmlns="http://www.w3.org/2000/svg">
<path d="M17.82 25.0313H9.17995C8.31552 25.0188 7.48767 24.6804 6.86194 24.0839C6.2362 23.4873 5.85871 22.6766 5.80495 21.8138L4.7812 6.24375C4.77595 6.13086 4.79313 6.01806 4.83175 5.91185C4.87037 5.80565 4.92966 5.70815 5.0062 5.625C5.08504 5.53883 5.1805 5.46949 5.28684 5.42116C5.39317 5.37283 5.50818 5.3465 5.62495 5.34375H21.375C21.4907 5.34349 21.6052 5.36704 21.7114 5.41291C21.8176 5.45879 21.9132 5.52602 21.9924 5.61042C22.0715 5.69483 22.1324 5.79461 22.1714 5.90356C22.2103 6.01252 22.2264 6.12831 22.2187 6.24375L21.24 21.8138C21.1856 22.6843 20.8018 23.5015 20.1665 24.0991C19.5312 24.6968 18.6922 25.0301 17.82 25.0313ZM6.56995 7.03125L7.4362 21.7125C7.46482 22.1552 7.66109 22.5704 7.98506 22.8734C8.30903 23.1765 8.73632 23.3447 9.17995 23.3438H17.82C18.2628 23.342 18.6886 23.1729 19.012 22.8704C19.3354 22.5679 19.5325 22.1542 19.5637 21.7125L20.475 7.0875L6.56995 7.03125Z" fill="#3D4451"/>
<path d="M23.625 7.03125H3.375C3.15122 7.03125 2.93661 6.94235 2.77838 6.78412C2.62014 6.62589 2.53125 6.41128 2.53125 6.1875C2.53125 5.96372 2.62014 5.74911 2.77838 5.59088C2.93661 5.43264 3.15122 5.34375 3.375 5.34375H23.625C23.8488 5.34375 24.0634 5.43264 24.2216 5.59088C24.3799 5.74911 24.4687 5.96372 24.4687 6.1875C24.4687 6.41128 24.3799 6.62589 24.2216 6.78412C24.0634 6.94235 23.8488 7.03125 23.625 7.03125Z" fill="#3D4451"/>
<path d="M16.875 7.03125H10.125C9.90213 7.02834 9.68921 6.93851 9.5316 6.7809C9.37399 6.62329 9.28416 6.41037 9.28125 6.1875V4.1625C9.29551 3.58517 9.53122 3.03543 9.93957 2.62707C10.3479 2.21872 10.8977 1.98301 11.475 1.96875H15.525C16.1119 1.98343 16.6699 2.22695 17.0798 2.64732C17.4896 3.0677 17.7189 3.63163 17.7188 4.21875V6.1875C17.7158 6.41037 17.626 6.62329 17.4684 6.7809C17.3108 6.93851 17.0979 7.02834 16.875 7.03125ZM10.9688 5.34375H16.0312V4.21875C16.0312 4.08448 15.9779 3.95572 15.883 3.86078C15.788 3.76584 15.6593 3.7125 15.525 3.7125H11.475C11.3407 3.7125 11.212 3.76584 11.117 3.86078C11.0221 3.95572 10.9688 4.08448 10.9688 4.21875V5.34375Z" fill="#3D4451"/>
<path d="M16.875 20.5312C16.6521 20.5283 16.4392 20.4385 16.2816 20.2809C16.124 20.1233 16.0342 19.9104 16.0312 19.6875V10.6875C16.0312 10.4637 16.1201 10.2491 16.2784 10.0909C16.4366 9.93265 16.6512 9.84375 16.875 9.84375C17.0988 9.84375 17.3134 9.93265 17.4716 10.0909C17.6299 10.2491 17.7188 10.4637 17.7188 10.6875V19.6875C17.7158 19.9104 17.626 20.1233 17.4684 20.2809C17.3108 20.4385 17.0979 20.5283 16.875 20.5312Z" fill="#3D4451"/>
<path d="M10.125 20.5312C9.90213 20.5283 9.68921 20.4385 9.5316 20.2809C9.37399 20.1233 9.28416 19.9104 9.28125 19.6875V10.6875C9.28125 10.4637 9.37015 10.2491 9.52838 10.0909C9.68661 9.93265 9.90122 9.84375 10.125 9.84375C10.3488 9.84375 10.5634 9.93265 10.7216 10.0909C10.8799 10.2491 10.9688 10.4637 10.9688 10.6875V19.6875C10.9658 19.9104 10.876 20.1233 10.7184 20.2809C10.5608 20.4385 10.3479 20.5283 10.125 20.5312Z" fill="#3D4451"/>
<path d="M13.5 20.5312C13.2771 20.5283 13.0642 20.4385 12.9066 20.2809C12.749 20.1233 12.6592 19.9104 12.6562 19.6875V10.6875C12.6562 10.4637 12.7451 10.2491 12.9034 10.0909C13.0616 9.93265 13.2762 9.84375 13.5 9.84375C13.7238 9.84375 13.9384 9.93265 14.0966 10.0909C14.2549 10.2491 14.3438 10.4637 14.3438 10.6875V19.6875C14.3408 19.9104 14.251 20.1233 14.0934 20.2809C13.9358 20.4385 13.7229 20.5283 13.5 20.5312Z" fill="#3D4451"/>
</svg>
