<svg width="144" height="144" viewBox="0 0 144 144" fill="none" xmlns="http://www.w3.org/2000/svg">
<circle cx="72" cy="72" r="70" fill="#D9D9D9" stroke="#FBFBFB" stroke-width="4"/>
<path d="M87.9783 51.0437H83.5957L81.1761 47.3915C80.263 46.0219 78.6652 45.2002 77.0217 45.2002H66.9783C65.3348 45.2002 63.737 46.0219 62.8239 47.3915L60.4043 51.0437H56.0217C53.237 51.0437 51 53.2806 51 56.0654V73.7785C51 76.5632 53.237 78.8002 56.0217 78.8002H87.9783C90.763 78.8002 93 76.5632 93 73.7785V56.0654C93 53.2806 90.763 51.0437 87.9783 51.0437ZM72 74.6915C65.7457 74.6915 60.6783 69.6241 60.6783 63.3698C60.6783 57.1154 65.7457 52.0937 72 52.0937C78.2543 52.0937 83.3217 57.1611 83.3217 63.4154C83.3217 69.6241 78.2543 74.6915 72 74.6915ZM87.3391 58.1198C87.2935 58.1198 87.2478 58.1198 87.1565 58.1198H85.3304C84.5087 58.0741 83.8696 57.3893 83.9152 56.5676C83.9609 55.7915 84.5543 55.198 85.3304 55.1524H87.1565C87.9783 55.1067 88.663 55.7458 88.7087 56.5676C88.7543 57.3893 88.1609 58.0741 87.3391 58.1198Z" fill="#838383"/>
<path d="M72 57.1152C68.5304 57.1152 65.7 59.9457 65.7 63.4152C65.7 66.8848 68.5304 69.6696 72 69.6696C75.4695 69.6696 78.3 66.8392 78.3 63.3696C78.3 59.9 75.4695 57.1152 72 57.1152Z" fill="#838383"/>
<path d="M27.928 96.296H24.436L23.836 98H22.408L25.396 89.648H26.98L29.968 98H28.528L27.928 96.296ZM27.544 95.18L26.188 91.304L24.82 95.18H27.544ZM33.9312 91.28C34.4432 91.28 34.8952 91.384 35.2872 91.592C35.6872 91.792 35.9992 92.044 36.2232 92.348V91.388H37.6032V98.108C37.6032 98.716 37.4752 99.256 37.2192 99.728C36.9632 100.208 36.5912 100.584 36.1032 100.856C35.6232 101.128 35.0472 101.264 34.3752 101.264C33.4792 101.264 32.7352 101.052 32.1432 100.628C31.5512 100.212 31.2152 99.644 31.1352 98.924H32.4912C32.5952 99.268 32.8152 99.544 33.1512 99.752C33.4952 99.968 33.9032 100.076 34.3752 100.076C34.9272 100.076 35.3712 99.908 35.7072 99.572C36.0512 99.236 36.2232 98.748 36.2232 98.108V97.004C35.9912 97.316 35.6752 97.58 35.2752 97.796C34.8832 98.004 34.4352 98.108 33.9312 98.108C33.3552 98.108 32.8272 97.964 32.3472 97.676C31.8752 97.38 31.4992 96.972 31.2192 96.452C30.9472 95.924 30.8112 95.328 30.8112 94.664C30.8112 94 30.9472 93.412 31.2192 92.9C31.4992 92.388 31.8752 91.992 32.3472 91.712C32.8272 91.424 33.3552 91.28 33.9312 91.28ZM36.2232 94.688C36.2232 94.232 36.1272 93.836 35.9352 93.5C35.7512 93.164 35.5072 92.908 35.2032 92.732C34.8992 92.556 34.5712 92.468 34.2192 92.468C33.8672 92.468 33.5392 92.556 33.2352 92.732C32.9312 92.9 32.6832 93.152 32.4912 93.488C32.3072 93.816 32.2152 94.208 32.2152 94.664C32.2152 95.12 32.3072 95.52 32.4912 95.864C32.6832 96.208 32.9312 96.472 33.2352 96.656C33.5472 96.832 33.8752 96.92 34.2192 96.92C34.5712 96.92 34.8992 96.832 35.2032 96.656C35.5072 96.48 35.7512 96.224 35.9352 95.888C36.1272 95.544 36.2232 95.144 36.2232 94.688ZM40.768 92.348C40.968 92.012 41.232 91.752 41.56 91.568C41.896 91.376 42.292 91.28 42.748 91.28V92.696H42.4C41.864 92.696 41.456 92.832 41.176 93.104C40.904 93.376 40.768 93.848 40.768 94.52V98H39.4V91.388H40.768V92.348ZM50.0655 94.532C50.0655 94.78 50.0495 95.004 50.0175 95.204H44.9655C45.0055 95.732 45.2015 96.156 45.5535 96.476C45.9055 96.796 46.3375 96.956 46.8495 96.956C47.5855 96.956 48.1055 96.648 48.4095 96.032H49.8855C49.6855 96.64 49.3215 97.14 48.7935 97.532C48.2735 97.916 47.6255 98.108 46.8495 98.108C46.2175 98.108 45.6495 97.968 45.1455 97.688C44.6495 97.4 44.2575 97 43.9695 96.488C43.6895 95.968 43.5495 95.368 43.5495 94.688C43.5495 94.008 43.6855 93.412 43.9575 92.9C44.2375 92.38 44.6255 91.98 45.1215 91.7C45.6255 91.42 46.2015 91.28 46.8495 91.28C47.4735 91.28 48.0295 91.416 48.5175 91.688C49.0055 91.96 49.3855 92.344 49.6575 92.84C49.9295 93.328 50.0655 93.892 50.0655 94.532ZM48.6375 94.1C48.6295 93.596 48.4495 93.192 48.0975 92.888C47.7455 92.584 47.3095 92.432 46.7895 92.432C46.3175 92.432 45.9135 92.584 45.5775 92.888C45.2415 93.184 45.0415 93.588 44.9775 94.1H48.6375ZM54.0757 91.28C54.5877 91.28 55.0397 91.384 55.4317 91.592C55.8317 91.792 56.1437 92.044 56.3677 92.348V91.388H57.7477V98.108C57.7477 98.716 57.6197 99.256 57.3637 99.728C57.1077 100.208 56.7357 100.584 56.2477 100.856C55.7677 101.128 55.1917 101.264 54.5197 101.264C53.6237 101.264 52.8797 101.052 52.2877 100.628C51.6957 100.212 51.3597 99.644 51.2797 98.924H52.6357C52.7397 99.268 52.9597 99.544 53.2957 99.752C53.6397 99.968 54.0477 100.076 54.5197 100.076C55.0717 100.076 55.5157 99.908 55.8517 99.572C56.1957 99.236 56.3677 98.748 56.3677 98.108V97.004C56.1357 97.316 55.8197 97.58 55.4197 97.796C55.0277 98.004 54.5797 98.108 54.0757 98.108C53.4997 98.108 52.9717 97.964 52.4917 97.676C52.0197 97.38 51.6437 96.972 51.3637 96.452C51.0917 95.924 50.9557 95.328 50.9557 94.664C50.9557 94 51.0917 93.412 51.3637 92.9C51.6437 92.388 52.0197 91.992 52.4917 91.712C52.9717 91.424 53.4997 91.28 54.0757 91.28ZM56.3677 94.688C56.3677 94.232 56.2717 93.836 56.0797 93.5C55.8957 93.164 55.6517 92.908 55.3477 92.732C55.0437 92.556 54.7157 92.468 54.3637 92.468C54.0117 92.468 53.6837 92.556 53.3797 92.732C53.0757 92.9 52.8277 93.152 52.6357 93.488C52.4517 93.816 52.3597 94.208 52.3597 94.664C52.3597 95.12 52.4517 95.52 52.6357 95.864C52.8277 96.208 53.0757 96.472 53.3797 96.656C53.6917 96.832 54.0197 96.92 54.3637 96.92C54.7157 96.92 55.0437 96.832 55.3477 96.656C55.6517 96.48 55.8957 96.224 56.0797 95.888C56.2717 95.544 56.3677 95.144 56.3677 94.688ZM59.0885 94.664C59.0885 94 59.2245 93.412 59.4965 92.9C59.7765 92.388 60.1525 91.992 60.6245 91.712C61.1045 91.424 61.6325 91.28 62.2085 91.28C62.7285 91.28 63.1805 91.384 63.5645 91.592C63.9565 91.792 64.2685 92.044 64.5005 92.348V91.388H65.8805V98H64.5005V97.016C64.2685 97.328 63.9525 97.588 63.5525 97.796C63.1525 98.004 62.6965 98.108 62.1845 98.108C61.6165 98.108 61.0965 97.964 60.6245 97.676C60.1525 97.38 59.7765 96.972 59.4965 96.452C59.2245 95.924 59.0885 95.328 59.0885 94.664ZM64.5005 94.688C64.5005 94.232 64.4045 93.836 64.2125 93.5C64.0285 93.164 63.7845 92.908 63.4805 92.732C63.1765 92.556 62.8485 92.468 62.4965 92.468C62.1445 92.468 61.8165 92.556 61.5125 92.732C61.2085 92.9 60.9605 93.152 60.7685 93.488C60.5845 93.816 60.4925 94.208 60.4925 94.664C60.4925 95.12 60.5845 95.52 60.7685 95.864C60.9605 96.208 61.2085 96.472 61.5125 96.656C61.8245 96.832 62.1525 96.92 62.4965 96.92C62.8485 96.92 63.1765 96.832 63.4805 96.656C63.7845 96.48 64.0285 96.224 64.2125 95.888C64.4045 95.544 64.5005 95.144 64.5005 94.688ZM69.0453 92.348C69.2453 92.012 69.5093 91.752 69.8373 91.568C70.1733 91.376 70.5693 91.28 71.0253 91.28V92.696H70.6773C70.1413 92.696 69.7333 92.832 69.4533 93.104C69.1813 93.376 69.0453 93.848 69.0453 94.52V98H67.6773V91.388H69.0453V92.348ZM76.768 89.66V98H75.4V89.66H76.768ZM86.5681 91.28C87.0881 91.28 87.5521 91.388 87.9601 91.604C88.3761 91.82 88.7001 92.14 88.9321 92.564C89.1721 92.988 89.2921 93.5 89.2921 94.1V98H87.9361V94.304C87.9361 93.712 87.7881 93.26 87.4921 92.948C87.1961 92.628 86.7921 92.468 86.2801 92.468C85.7681 92.468 85.3601 92.628 85.0561 92.948C84.7601 93.26 84.6121 93.712 84.6121 94.304V98H83.2561V94.304C83.2561 93.712 83.1081 93.26 82.8121 92.948C82.5161 92.628 82.1121 92.468 81.6001 92.468C81.0881 92.468 80.6801 92.628 80.3761 92.948C80.0801 93.26 79.9321 93.712 79.9321 94.304V98H78.5641V91.388H79.9321V92.144C80.1561 91.872 80.4401 91.66 80.7841 91.508C81.1281 91.356 81.4961 91.28 81.8881 91.28C82.4161 91.28 82.8881 91.392 83.3041 91.616C83.7201 91.84 84.0401 92.164 84.2641 92.588C84.4641 92.188 84.7761 91.872 85.2001 91.64C85.6241 91.4 86.0801 91.28 86.5681 91.28ZM90.5768 94.664C90.5768 94 90.7128 93.412 90.9848 92.9C91.2648 92.388 91.6408 91.992 92.1128 91.712C92.5928 91.424 93.1208 91.28 93.6968 91.28C94.2168 91.28 94.6688 91.384 95.0528 91.592C95.4448 91.792 95.7568 92.044 95.9888 92.348V91.388H97.3688V98H95.9888V97.016C95.7568 97.328 95.4408 97.588 95.0408 97.796C94.6408 98.004 94.1848 98.108 93.6728 98.108C93.1048 98.108 92.5848 97.964 92.1128 97.676C91.6408 97.38 91.2648 96.972 90.9848 96.452C90.7128 95.924 90.5768 95.328 90.5768 94.664ZM95.9888 94.688C95.9888 94.232 95.8928 93.836 95.7008 93.5C95.5168 93.164 95.2728 92.908 94.9688 92.732C94.6648 92.556 94.3368 92.468 93.9848 92.468C93.6328 92.468 93.3048 92.556 93.0008 92.732C92.6968 92.9 92.4488 93.152 92.2568 93.488C92.0728 93.816 91.9808 94.208 91.9808 94.664C91.9808 95.12 92.0728 95.52 92.2568 95.864C92.4488 96.208 92.6968 96.472 93.0008 96.656C93.3128 96.832 93.6408 96.92 93.9848 96.92C94.3368 96.92 94.6648 96.832 94.9688 96.656C95.2728 96.48 95.5168 96.224 95.7008 95.888C95.8928 95.544 95.9888 95.144 95.9888 94.688ZM101.83 91.28C102.342 91.28 102.794 91.384 103.186 91.592C103.586 91.792 103.898 92.044 104.122 92.348V91.388H105.502V98.108C105.502 98.716 105.374 99.256 105.118 99.728C104.862 100.208 104.49 100.584 104.002 100.856C103.522 101.128 102.946 101.264 102.274 101.264C101.378 101.264 100.634 101.052 100.042 100.628C99.4496 100.212 99.1136 99.644 99.0336 98.924H100.39C100.494 99.268 100.714 99.544 101.05 99.752C101.394 99.968 101.802 100.076 102.274 100.076C102.826 100.076 103.27 99.908 103.606 99.572C103.95 99.236 104.122 98.748 104.122 98.108V97.004C103.89 97.316 103.574 97.58 103.174 97.796C102.782 98.004 102.334 98.108 101.83 98.108C101.254 98.108 100.726 97.964 100.246 97.676C99.7736 97.38 99.3976 96.972 99.1176 96.452C98.8456 95.924 98.7096 95.328 98.7096 94.664C98.7096 94 98.8456 93.412 99.1176 92.9C99.3976 92.388 99.7736 91.992 100.246 91.712C100.726 91.424 101.254 91.28 101.83 91.28ZM104.122 94.688C104.122 94.232 104.026 93.836 103.834 93.5C103.65 93.164 103.406 92.908 103.102 92.732C102.798 92.556 102.47 92.468 102.118 92.468C101.766 92.468 101.438 92.556 101.134 92.732C100.83 92.9 100.582 93.152 100.39 93.488C100.206 93.816 100.114 94.208 100.114 94.664C100.114 95.12 100.206 95.52 100.39 95.864C100.582 96.208 100.83 96.472 101.134 96.656C101.446 96.832 101.774 96.92 102.118 96.92C102.47 96.92 102.798 96.832 103.102 96.656C103.406 96.48 103.65 96.224 103.834 95.888C104.026 95.544 104.122 95.144 104.122 94.688ZM113.358 94.532C113.358 94.78 113.342 95.004 113.31 95.204H108.258C108.298 95.732 108.494 96.156 108.846 96.476C109.198 96.796 109.63 96.956 110.142 96.956C110.878 96.956 111.398 96.648 111.702 96.032H113.178C112.978 96.64 112.614 97.14 112.086 97.532C111.566 97.916 110.918 98.108 110.142 98.108C109.51 98.108 108.942 97.968 108.438 97.688C107.942 97.4 107.55 97 107.262 96.488C106.982 95.968 106.842 95.368 106.842 94.688C106.842 94.008 106.978 93.412 107.25 92.9C107.53 92.38 107.918 91.98 108.414 91.7C108.918 91.42 109.494 91.28 110.142 91.28C110.766 91.28 111.322 91.416 111.81 91.688C112.298 91.96 112.678 92.344 112.95 92.84C113.222 93.328 113.358 93.892 113.358 94.532ZM111.93 94.1C111.922 93.596 111.742 93.192 111.39 92.888C111.038 92.584 110.602 92.432 110.082 92.432C109.61 92.432 109.206 92.584 108.87 92.888C108.534 93.184 108.334 93.588 108.27 94.1H111.93ZM118.041 91.28C118.561 91.28 119.025 91.388 119.433 91.604C119.849 91.82 120.173 92.14 120.405 92.564C120.637 92.988 120.753 93.5 120.753 94.1V98H119.397V94.304C119.397 93.712 119.249 93.26 118.953 92.948C118.657 92.628 118.253 92.468 117.741 92.468C117.229 92.468 116.821 92.628 116.517 92.948C116.221 93.26 116.073 93.712 116.073 94.304V98H114.705V91.388H116.073V92.144C116.297 91.872 116.581 91.66 116.925 91.508C117.277 91.356 117.649 91.28 118.041 91.28Z" fill="#838383"/>
</svg>
