<svg width="258" height="301" viewBox="0 0 258 301" fill="none" xmlns="http://www.w3.org/2000/svg">
<path d="M102.122 20.2421C89.5977 25.6372 77.6314 32.6674 67.672 42.0611C57.4546 51.4579 49.148 63.0529 44.2899 76.1014C42.0718 82.1038 40.2142 88.3367 39.7154 94.7406C39.607 95.5079 40.6097 95.5954 40.8377 94.9108C47.4334 84.4105 55.2576 74.6188 64.679 66.4947C75.091 57.4381 87.2422 50.3037 100.441 46.2378C106.386 44.3189 112.52 42.9626 118.715 42.5502C119.495 42.5445 119.45 41.5435 118.769 41.3843C112.341 38.4882 106.913 33.3063 104.308 26.7372C103.41 24.6945 103.022 22.4799 102.518 20.359C102.475 20.1845 102.248 20.255 102.122 20.2421L102.122 20.2421Z" fill="white"/>
<path d="M123.414 45.6828C108.32 45.6783 93.3878 50.4411 80.8032 58.7113C74.5026 62.7423 68.7382 67.5642 63.5679 72.9644C57.5497 78.9309 52.13 85.517 47.5221 92.6303C38.2185 108.018 33.5493 125.987 33.0149 143.896C32.9278 150.949 33.1961 158.061 34.5207 165.002C36.4968 174.198 42.3785 182.662 50.6879 187.193C56.0434 190.063 62.7132 190.058 68.1753 187.486C75.0847 184.091 79.1561 176.226 78.7084 168.642C78.9111 162.274 76.009 156.401 73.2774 150.832C69.3775 143.463 66.8211 135.268 66.7211 126.927C66.533 110.971 72.3795 95.2275 81.8378 82.4882C87.1877 75.2491 93.552 68.7092 100.66 63.1575C107.341 58.6703 115.058 55.912 122.899 54.2815C137.083 51.5372 151.805 53.2467 165.492 57.6938C165.959 57.9682 167.22 57.9133 166.65 57.1223C159.603 52.9996 151.865 50.093 143.951 48.1242C137.236 46.4936 130.326 45.6442 123.414 45.6828Z" fill="white"/>
<path d="M81.1003 166.204C80.3694 166.574 81.1968 167.479 80.9915 168.075C81.4477 172.984 80.8821 178.065 78.6319 182.538C77.1094 185.958 74.6996 188.875 72.0057 191.436C71.232 192.03 71.8925 192.883 72.5958 193.137C83.7 200.898 95.9559 207.139 109.06 210.706C120.383 213.834 132.306 214.931 143.982 213.477C152.372 212.437 160.737 210.338 168.303 206.5C168.829 205.262 166.507 205.958 165.777 205.731C146.907 205.464 127.876 201.271 111.3 191.992C100.072 185.737 89.9453 177.338 82.2365 167.051C81.9078 166.742 81.6191 166.167 81.1003 166.204Z" fill="white"/>
<path d="M71.6548 118.001C70.8944 118.599 71.4559 119.815 71.3683 120.653C72.4533 137.671 78.1918 154.519 88.6186 168.098C92.3723 172.958 96.8239 177.259 101.514 181.206C108.276 186.475 115.747 190.833 123.747 193.933C134.772 198.274 146.498 200.677 158.271 201.786C165.122 201.938 172.036 201.986 178.802 200.736C195.608 198.054 211.599 191.099 225.381 181.17C232.651 176.316 238.727 169.261 241.149 160.745C242.91 154.832 243.109 148.084 239.948 142.592C236.567 136.424 229.556 132.41 222.497 132.946C214.723 133.382 207.867 138.305 203.449 144.492C199.718 149.503 196.817 155.145 192.455 159.665C184.761 168.126 173.978 173.219 163.026 175.933C157.247 177.389 151.3 178.092 145.342 177.985C139.527 178.097 133.758 177.624 128.056 176.452C121.774 175.195 115.439 173.587 109.549 171.06C99.2072 165.767 90.65 157.371 84.3647 147.667C78.8328 139.101 75.0995 129.459 72.7103 119.575C72.4639 119.085 72.4175 117.943 71.6548 118.001Z" fill="white"/>
<path d="M201.684 39.4337C200.871 39.9338 201.967 40.8941 202.123 41.5347C209.972 55.7022 215.228 71.4598 216.75 87.5855C217.374 96.696 217.259 105.887 215.49 114.867C214.288 121.609 212.172 128.163 209.421 134.424C209.583 135.452 210.724 134.492 211.186 134.205C216.103 130.747 222.14 128.58 228.196 129.057C231.037 129.098 233.843 129.739 236.527 130.697C237.485 130.392 237.104 128.991 237.332 128.215C237.913 118.993 238.129 109.684 236.799 100.512C234.453 82.4217 227.191 64.7801 214.983 51.1013C211.083 46.7613 206.879 42.5578 201.908 39.4588C201.836 39.4352 201.759 39.4224 201.684 39.4337V39.4337Z" fill="white"/>
<path d="M133.857 0.00367024C127.488 0.0509377 120.859 1.59976 115.781 5.60165C110.699 9.61313 107.657 16.2365 108.564 22.724C109.287 29.0853 113.486 34.6279 118.918 37.8303C125.602 41.8744 133.672 41.8793 141.206 42.623C149.452 43.3891 157.432 46.1869 164.314 50.7671C178.195 59.8519 188.238 74.0596 193.652 89.6002C195.852 95.9432 197.62 102.451 198.572 109.094C198.835 114.829 198.731 120.634 197.291 126.223C193.603 142.504 183.92 157.041 171.47 168.026C171.029 168.667 169.778 169.115 170.005 170.013C170.725 170.647 171.604 169.501 172.29 169.265C188.803 159.021 202.364 143.45 208.6 124.897C211.387 116.595 212.876 107.832 212.652 99.0638C212.861 88.9958 210.94 78.9976 208.08 69.3817C205.182 60.0258 201.733 50.7047 196.183 42.5598C184.249 24.5884 166.632 10.6121 146.748 2.37872C142.65 0.770272 138.261 -0.0626073 133.857 0.00367024Z" fill="white"/>
<path d="M102.988 78.8323C102.211 79.2904 103.121 80.3159 103.23 80.9464C106.087 87.5635 107.999 94.7438 107.427 101.951C107.055 111.022 101.944 119.394 94.9243 125.01C94.4818 125.289 93.5293 126.288 94.523 126.468C97.4522 125.469 100.275 124.056 103.274 123.297C110.443 121.12 118.239 120.659 125.374 123.218C131.447 125.21 136.512 129.448 140.547 134.339C140.819 134.818 141.863 135.565 142.021 134.623C139.097 128.043 136.673 121.036 136.921 113.779C136.885 108.922 137.978 104.035 140.299 99.7519C142.532 95.2211 146.139 91.4667 149.973 88.2024C150.59 87.8353 150.177 86.9062 149.501 87.2962C144.488 89.4315 139.249 91.2949 133.835 91.9533C129.192 92.297 124.473 92.3331 120.015 90.7932C114.414 89.1036 109.536 85.6017 105.603 81.3289C104.697 80.6518 104.125 79.1457 102.988 78.8323V78.8323Z" fill="white"/>
<path d="M167.81 113.51C166.782 114.451 167.504 116.245 167.166 117.493C166.857 121.903 164.206 125.973 160.308 128.052C159.657 128.257 158.983 129.359 160.008 129.499C163.87 129.56 167.978 130.222 170.878 132.974C172.468 134.14 173.075 136.197 174.542 137.421C175.737 137.102 175.031 135.275 175.314 134.354C175.569 130.399 177.362 126.498 180.707 124.232C181.785 123.301 183.285 122.969 184.33 122.061C183.627 121.034 181.716 121.894 180.541 121.574C175.706 121.398 170.742 118.853 168.742 114.281C168.508 113.977 168.275 113.456 167.81 113.51V113.51Z" fill="white"/>
<path d="M102.122 20.2421C89.5977 25.6372 77.6314 32.6674 67.672 42.0611C57.4546 51.4579 49.148 63.0529 44.2899 76.1014C42.0718 82.1038 40.2142 88.3367 39.7154 94.7406C39.607 95.5079 40.6097 95.5954 40.8377 94.9108C47.4334 84.4105 55.2576 74.6188 64.679 66.4947C75.091 57.4381 87.2422 50.3037 100.441 46.2378C106.386 44.3189 112.52 42.9626 118.715 42.5502C119.495 42.5445 119.45 41.5435 118.769 41.3843C112.341 38.4882 106.913 33.3063 104.308 26.7372C103.41 24.6945 103.022 22.4799 102.518 20.359C102.475 20.1845 102.248 20.255 102.122 20.2421L102.122 20.2421Z" fill="white"/>
<path d="M123.414 45.6828C108.32 45.6783 93.3878 50.4411 80.8032 58.7113C74.5026 62.7423 68.7382 67.5642 63.5679 72.9644C57.5497 78.9309 52.13 85.517 47.5221 92.6303C38.2185 108.018 33.5493 125.987 33.0149 143.896C32.9278 150.949 33.1961 158.061 34.5207 165.002C36.4968 174.198 42.3785 182.662 50.6879 187.193C56.0434 190.063 62.7132 190.058 68.1753 187.486C75.0847 184.091 79.1561 176.226 78.7084 168.642C78.9111 162.274 76.009 156.401 73.2774 150.832C69.3775 143.463 66.8211 135.268 66.7211 126.927C66.533 110.971 72.3795 95.2275 81.8378 82.4882C87.1877 75.2491 93.552 68.7092 100.66 63.1575C107.341 58.6703 115.058 55.912 122.899 54.2815C137.083 51.5372 151.805 53.2467 165.492 57.6938C165.959 57.9682 167.22 57.9133 166.65 57.1223C159.603 52.9996 151.865 50.093 143.951 48.1242C137.236 46.4936 130.326 45.6442 123.414 45.6828Z" fill="white"/>
<path d="M81.1003 166.204C80.3694 166.574 81.1968 167.479 80.9915 168.075C81.4477 172.984 80.8821 178.065 78.6319 182.538C77.1094 185.958 74.6996 188.875 72.0057 191.436C71.232 192.03 71.8925 192.883 72.5958 193.137C83.7 200.898 95.9559 207.139 109.06 210.706C120.383 213.834 132.306 214.931 143.982 213.477C152.372 212.437 160.737 210.338 168.303 206.5C168.829 205.262 166.507 205.958 165.777 205.731C146.907 205.464 127.876 201.271 111.3 191.992C100.072 185.737 89.9453 177.338 82.2365 167.051C81.9078 166.742 81.6191 166.167 81.1003 166.204Z" fill="white"/>
<path d="M71.6548 118.001C70.8944 118.599 71.4559 119.815 71.3683 120.653C72.4533 137.671 78.1918 154.519 88.6186 168.098C92.3723 172.958 96.8239 177.259 101.514 181.206C108.276 186.475 115.747 190.833 123.747 193.933C134.772 198.274 146.498 200.677 158.271 201.786C165.122 201.938 172.036 201.986 178.802 200.736C195.608 198.054 211.599 191.099 225.381 181.17C232.651 176.316 238.727 169.261 241.149 160.745C242.91 154.832 243.109 148.084 239.948 142.592C236.567 136.424 229.556 132.41 222.497 132.946C214.723 133.382 207.867 138.305 203.449 144.492C199.718 149.503 196.817 155.145 192.455 159.665C184.761 168.126 173.978 173.219 163.026 175.933C157.247 177.389 151.3 178.092 145.342 177.985C139.527 178.097 133.758 177.624 128.056 176.452C121.774 175.195 115.439 173.587 109.549 171.06C99.2072 165.767 90.65 157.371 84.3647 147.667C78.8328 139.101 75.0995 129.459 72.7103 119.575C72.4639 119.085 72.4175 117.943 71.6548 118.001Z" fill="white"/>
<path d="M201.684 39.4337C200.871 39.9338 201.967 40.8941 202.123 41.5347C209.972 55.7022 215.228 71.4598 216.75 87.5855C217.374 96.696 217.259 105.887 215.49 114.867C214.288 121.609 212.172 128.163 209.421 134.424C209.583 135.452 210.724 134.492 211.186 134.205C216.103 130.747 222.14 128.58 228.196 129.057C231.037 129.098 233.843 129.739 236.527 130.697C237.485 130.392 237.104 128.991 237.332 128.215C237.913 118.993 238.129 109.684 236.799 100.512C234.453 82.4217 227.191 64.7801 214.983 51.1013C211.083 46.7613 206.879 42.5578 201.908 39.4588C201.836 39.4352 201.759 39.4224 201.684 39.4337V39.4337Z" fill="white"/>
<path d="M133.857 0.00367024C127.488 0.0509377 120.859 1.59976 115.781 5.60165C110.699 9.61313 107.657 16.2365 108.564 22.724C109.287 29.0853 113.486 34.6279 118.918 37.8303C125.602 41.8744 133.672 41.8793 141.206 42.623C149.452 43.3891 157.432 46.1869 164.314 50.7671C178.195 59.8519 188.238 74.0596 193.652 89.6002C195.852 95.9432 197.62 102.451 198.572 109.094C198.835 114.829 198.731 120.634 197.291 126.223C193.603 142.504 183.92 157.041 171.47 168.026C171.029 168.667 169.778 169.115 170.005 170.013C170.725 170.647 171.604 169.501 172.29 169.265C188.803 159.021 202.364 143.45 208.6 124.897C211.387 116.595 212.876 107.832 212.652 99.0638C212.861 88.9958 210.94 78.9976 208.08 69.3817C205.182 60.0258 201.733 50.7047 196.183 42.5598C184.249 24.5884 166.632 10.6121 146.748 2.37872C142.65 0.770272 138.261 -0.0626073 133.857 0.00367024Z" fill="white"/>
<path d="M102.988 78.8323C102.211 79.2904 103.121 80.3159 103.23 80.9464C106.087 87.5635 107.999 94.7438 107.427 101.951C107.055 111.022 101.944 119.394 94.9243 125.01C94.4818 125.289 93.5293 126.288 94.523 126.468C97.4522 125.469 100.275 124.056 103.274 123.297C110.443 121.12 118.239 120.659 125.374 123.218C131.447 125.21 136.512 129.448 140.547 134.339C140.819 134.818 141.863 135.565 142.021 134.623C139.097 128.043 136.673 121.036 136.921 113.779C136.885 108.922 137.978 104.035 140.299 99.7519C142.532 95.2211 146.139 91.4667 149.973 88.2024C150.59 87.8353 150.177 86.9062 149.501 87.2962C144.488 89.4315 139.249 91.2949 133.835 91.9533C129.192 92.297 124.473 92.3331 120.015 90.7932C114.414 89.1036 109.536 85.6017 105.603 81.3289C104.697 80.6518 104.125 79.1457 102.988 78.8323V78.8323Z" fill="white"/>
<path d="M167.81 113.51C166.782 114.451 167.504 116.245 167.166 117.493C166.857 121.903 164.206 125.973 160.308 128.052C159.657 128.257 158.983 129.359 160.008 129.499C163.87 129.56 167.978 130.222 170.878 132.974C172.468 134.14 173.075 136.197 174.542 137.421C175.737 137.102 175.031 135.275 175.314 134.354C175.569 130.399 177.362 126.498 180.707 124.232C181.785 123.301 183.285 122.969 184.33 122.061C183.627 121.034 181.716 121.894 180.541 121.574C175.706 121.398 170.742 118.853 168.742 114.281C168.508 113.977 168.275 113.456 167.81 113.51V113.51Z" fill="white"/>
<path d="M28.7359 259.253C28.7359 263.64 27.4863 267.435 24.989 270.635C22.2723 274.117 18.7908 275.858 14.5438 275.858C13.7316 275.858 12.5101 275.826 10.8788 275.764C9.24671 275.702 8.02525 275.671 7.21371 275.671C6.47955 275.671 5.3751 275.702 3.89975 275.764C2.42375 275.827 1.31931 275.858 0.585785 275.858C0.195682 275.858 0 275.663 0 275.272C0 273.571 0.0664974 271.002 0.199516 267.567C0.331895 264.132 0.398408 261.556 0.398408 259.838C0.398408 258.027 0.335736 255.303 0.211031 251.665C0.0856862 248.027 0.0236539 245.303 0.0236539 243.492C0.0236539 243.164 0.226377 243 0.632468 243C1.20995 243 2.07266 243.008 3.21995 243.023C4.36788 243.038 5.23058 243.046 5.80806 243.046C6.33886 243.046 7.15103 243.038 8.24396 243.023C9.33625 243.008 10.1644 243 10.7265 243C16.1445 243 20.1798 244.023 22.8345 246.068C24.7396 247.535 26.2149 249.51 27.2605 251.994C28.2441 254.304 28.7359 256.723 28.7359 259.253ZM22.9982 259.253C22.9982 255.88 22.0383 253.133 20.1178 251.009C18.1193 248.808 15.4494 247.707 12.1085 247.707C9.3452 247.707 8.22861 247.691 8.75941 247.66C6.93296 247.754 6.01909 248.09 6.01909 248.667C6.01909 249.87 5.9916 251.669 5.93724 254.065C5.88288 256.462 5.85539 258.261 5.85539 259.463C5.85539 260.649 5.88224 262.43 5.93724 264.803C5.99224 267.176 6.01909 268.956 6.01909 270.143C6.01909 270.736 6.95599 271.08 8.82976 271.173C8.57971 271.158 9.71996 271.149 12.2492 271.149C14.0443 271.149 15.473 270.962 16.5352 270.587C17.8469 270.119 19.0255 269.253 20.0718 267.988C22.0223 265.615 22.9982 262.703 22.9982 259.253V259.253Z" fill="white"/>
<path d="M53.7011 264.453C53.7011 267.716 52.6318 270.502 50.4926 272.813C48.3068 275.201 45.5978 276.396 42.3657 276.396C39.1183 276.396 36.4016 275.21 34.2158 272.837C32.0766 270.542 31.0073 267.763 31.0073 264.499C31.0073 261.236 32.0766 258.458 34.2158 256.162C36.417 253.82 39.1336 252.65 42.3657 252.65C45.5818 252.65 48.2825 253.82 50.469 256.162C52.6235 258.441 53.7011 261.205 53.7011 264.453V264.453ZM48.7596 264.499C48.7596 262.594 48.1738 260.97 47.0028 259.627C45.7852 258.207 44.2395 257.497 42.3657 257.497C40.4919 257.497 38.9386 258.199 37.7049 259.604C36.534 260.963 35.9482 262.595 35.9482 264.499C35.9482 266.372 36.5417 267.997 37.728 269.37C38.9769 270.822 40.5226 271.548 42.3651 271.548C44.2229 271.548 45.7686 270.822 47.0022 269.37C48.1738 267.997 48.7596 266.372 48.7596 264.499V264.499Z" fill="white"/>
<path d="M92.6017 274.99C92.6017 275.6 92.422 275.904 92.0632 275.904C91.8292 275.904 91.4736 275.881 90.9972 275.834C90.5207 275.788 90.1575 275.764 89.9081 275.764C89.642 275.764 89.2443 275.779 88.7135 275.811C88.1827 275.842 87.7842 275.857 87.5188 275.857C87.1908 275.857 87.0271 275.491 87.0271 274.757C87.0271 274.039 87.0539 272.965 87.1089 271.536C87.1633 270.108 87.1908 269.034 87.1908 268.316C87.1908 264.366 87.1754 262.165 87.1441 261.712C87.0187 260.104 86.6913 258.995 86.1605 258.387C85.5517 257.731 84.4665 257.403 82.9054 257.403C81.9218 257.403 80.8129 257.871 79.5799 258.808C78.2996 259.792 77.6358 260.76 77.5891 261.712C77.5264 262.93 77.4957 265.155 77.4957 268.387C77.4957 269.152 77.5271 270.299 77.5891 271.83C77.6511 273.36 77.6825 274.508 77.6825 275.272C77.6825 275.694 77.5418 275.905 77.261 275.905C76.9803 275.905 76.5697 275.882 76.0319 275.834C75.4928 275.788 75.0835 275.765 74.8021 275.765C74.5521 275.765 74.185 275.78 73.7015 275.811C73.2174 275.843 72.8503 275.858 72.6009 275.858C72.2882 275.858 72.1328 275.632 72.1328 275.178C72.1328 274.429 72.1565 273.301 72.2031 271.795C72.2498 270.288 72.2735 269.16 72.2735 268.41V262.767C72.2735 261.002 72.0624 259.745 71.641 258.996C71.0475 257.934 69.9156 257.404 68.2452 257.404C67.2616 257.404 66.0907 257.817 64.7324 258.645C63.2333 259.551 62.4838 260.464 62.4838 261.385V268.223C62.4838 269.004 62.4915 270.167 62.5075 271.712C62.5228 273.258 62.5311 274.414 62.5311 275.178C62.5311 275.632 62.3514 275.858 61.9927 275.858H57.6363C57.3236 275.858 57.1682 275.647 57.1682 275.226C57.1682 273.961 57.1759 272.061 57.1918 269.523C57.2072 266.986 57.2155 265.085 57.2155 263.821C57.2155 260.963 56.9111 258.114 56.3023 255.273C56.2556 255.07 56.2319 254.906 56.2319 254.78C56.2319 254.578 56.3023 254.461 56.443 254.429C57.0205 254.367 57.8633 254.25 58.9723 254.078C59.4877 253.921 60.2602 253.749 61.2905 253.562L61.4779 253.538C61.6652 253.538 61.8411 254.089 62.0048 255.19C62.1692 256.291 62.3131 256.841 62.4384 256.841L63.6094 255.811C64.5303 255.014 65.4512 254.382 66.3727 253.913C67.6997 253.227 69.0267 252.883 70.3543 252.883C73.9452 252.883 76.2327 254.351 77.2163 257.286C78.1845 256.038 79.3862 255.007 80.8231 254.195C82.3535 253.321 83.8679 252.883 85.3662 252.883C88.2549 252.883 90.2528 253.726 91.3617 255.412C92.1579 256.662 92.5563 258.637 92.5563 261.338C92.5563 261.853 92.541 262.65 92.5096 263.727C92.4783 264.804 92.4629 265.6 92.4629 266.115C92.4629 267.099 92.4866 268.579 92.5333 270.553C92.578 272.528 92.6017 274.007 92.6017 274.99V274.99Z" fill="white"/>
<path d="M117.075 263.281C117.075 264.437 116.575 265.21 115.576 265.6C114.904 265.85 110.072 266.31 101.079 266.982C101.282 268.355 102.039 269.526 103.351 270.494C104.6 271.415 105.942 271.876 107.379 271.876C109.846 271.876 112.11 271.08 114.171 269.487C114.42 269.285 114.67 269.081 114.92 268.879C115.045 268.879 115.127 268.894 115.166 268.925C115.205 268.957 115.498 269.499 116.045 270.553C116.591 271.607 116.865 272.173 116.865 272.251C116.865 272.344 116.739 272.524 116.49 272.79C114.195 275.226 111.252 276.443 107.661 276.443C104.038 276.443 101.15 275.363 98.9953 273.2C96.8408 271.037 95.7632 268.152 95.7632 264.546C95.7632 261.33 96.7934 258.527 98.8546 256.139C101.024 253.656 103.687 252.415 106.841 252.415C109.776 252.415 112.227 253.493 114.195 255.648C116.114 257.739 117.075 260.283 117.075 263.281V263.281ZM111.501 261.852C111.501 260.557 110.989 259.409 109.967 258.409C108.944 257.41 107.792 256.91 106.513 256.91C105.076 256.91 103.8 257.488 102.684 258.644C101.567 259.799 101.009 261.095 101.009 262.531C101.009 262.859 101.29 263.023 101.852 263.023C104.163 263.023 106.926 262.789 110.143 262.32C111.048 262.196 111.501 262.04 111.501 261.852V261.852Z" fill="white"/>
<path d="M131.314 268.644C131.314 270.97 130.385 272.836 128.528 274.241C126.841 275.522 124.788 276.162 122.368 276.162C121.431 276.162 120.9 276.138 120.775 276.092C120.509 275.967 120.377 275.584 120.377 274.944C120.377 274.601 120.334 274.085 120.248 273.398C120.162 272.712 120.119 272.204 120.119 271.876C120.119 271.673 120.26 271.541 120.541 271.478C120.743 271.431 121.033 271.431 121.407 271.478C121.891 271.524 122.125 271.548 122.11 271.548C125.061 271.548 126.536 270.642 126.536 268.831C126.536 267.972 125.888 267.184 124.592 266.466C122.484 265.311 121.274 264.6 120.962 264.335C119.666 263.226 119.018 261.774 119.018 259.978C119.018 257.637 119.9 255.809 121.664 254.498C123.257 253.327 125.271 252.742 127.706 252.742C127.925 252.742 128.085 252.843 128.187 253.047C128.288 253.249 128.483 253.883 128.772 254.944C129.061 256.006 129.206 256.646 129.206 256.865C129.206 257.037 129.057 257.145 128.76 257.192C127.761 257.333 126.754 257.466 125.739 257.59C124.537 257.919 123.936 258.574 123.936 259.558C123.936 260.26 124.568 260.971 125.833 261.688C127.706 262.735 128.892 263.492 129.392 263.961C130.673 265.178 131.314 266.739 131.314 268.644V268.644Z" fill="white"/>
<path d="M147.731 271.548C147.731 271.891 147.7 272.36 147.637 272.953C147.559 273.686 147.513 274.164 147.497 274.382C147.481 274.662 147.458 274.834 147.427 274.896C147.364 275.006 147.217 275.116 146.982 275.225C145.702 275.833 143.688 276.138 140.94 276.138C137.287 276.138 135.46 274.483 135.46 271.173C135.46 269.846 135.491 267.851 135.553 265.19C135.615 262.528 135.647 260.534 135.647 259.207C135.647 258.566 135.327 258.222 134.687 258.176C134.109 258.176 133.539 258.168 132.977 258.153C132.649 258.075 132.485 257.434 132.485 256.232C132.485 255.779 132.516 255.304 132.578 254.804C132.625 254.429 132.875 254.203 133.328 254.124C133.718 254.124 134.101 254.117 134.476 254.101C135.193 254.07 135.553 253.75 135.553 253.141C135.553 252.516 135.533 251.564 135.494 250.283C135.455 249.003 135.436 248.043 135.436 247.403C135.436 246.263 135.654 245.693 136.091 245.693C136.232 245.693 137.699 245.935 140.494 246.419C140.854 246.466 141.033 246.638 141.033 246.935C141.033 247.622 140.982 248.653 140.881 250.026C140.779 251.4 140.729 252.431 140.729 253.118C140.729 253.571 140.94 253.797 141.361 253.797H146.981C147.247 253.797 147.38 253.89 147.38 254.078C147.38 254.265 147.352 254.566 147.298 254.979C147.243 255.392 147.216 255.701 147.216 255.904C147.216 256.138 147.224 256.498 147.239 256.982C147.254 257.466 147.262 257.825 147.262 258.059C147.262 258.356 147.043 258.504 146.607 258.504C145.982 258.504 145.038 258.462 143.773 258.375C142.508 258.289 141.563 258.247 140.939 258.247C140.814 258.247 140.72 258.691 140.658 259.582C140.58 260.69 140.541 262.244 140.541 264.242V267.732C140.541 269.075 140.666 270.011 140.916 270.543C141.29 271.355 142.063 271.76 143.234 271.76C143.718 271.76 144.428 271.655 145.365 271.444C146.302 271.233 146.997 271.128 147.449 271.128C147.637 271.126 147.731 271.267 147.731 271.548V271.548Z" fill="white"/>
<path d="M157.169 247.848C157.169 249.768 156.099 250.728 153.961 250.728C151.79 250.728 150.705 249.768 150.705 247.848C150.705 246.989 151.04 246.279 151.712 245.717C152.336 245.186 153.085 244.92 153.961 244.92C154.834 244.92 155.588 245.194 156.22 245.74C156.853 246.286 157.169 246.989 157.169 247.848V247.848ZM157.005 254.194C157.005 255.397 156.931 257.212 156.782 259.64C156.634 262.068 156.56 263.89 156.56 265.109C156.56 266.248 156.584 267.954 156.63 270.225C156.677 272.498 156.7 274.196 156.7 275.32C156.7 275.647 156.559 275.812 156.278 275.812H151.712C151.383 275.812 151.219 275.492 151.219 274.852C151.219 273.773 151.246 272.154 151.301 269.991C151.356 267.829 151.383 266.202 151.383 265.109C151.383 263.891 151.293 262.063 151.114 259.628C150.935 257.193 150.845 255.366 150.845 254.149C150.845 253.883 151.008 253.75 151.337 253.75C151.618 253.75 152.051 253.79 152.636 253.868C153.222 253.946 153.662 253.985 153.96 253.985C154.256 253.985 154.697 253.946 155.282 253.868C155.868 253.79 156.309 253.75 156.605 253.75C156.873 253.749 157.005 253.898 157.005 254.194V254.194Z" fill="white"/>
<path d="M177.99 254.616C177.99 254.959 177.81 255.724 177.451 256.911C177.091 258.098 176.842 258.69 176.702 258.69C175.998 258.379 175.292 258.066 174.583 257.753C173.872 257.442 173.095 257.285 172.251 257.285C170.332 257.285 168.731 257.996 167.451 259.417C166.17 260.838 165.53 262.517 165.53 264.452C165.53 266.358 166.17 268.004 167.451 269.394C168.762 270.83 170.362 271.548 172.251 271.548C173.298 271.548 174.328 271.291 175.343 270.775C176.358 270.26 176.803 270.003 176.678 270.003C176.881 270.003 177.107 270.658 177.358 271.97C177.591 273.156 177.709 273.977 177.709 274.429C177.709 274.914 176.796 275.389 174.969 275.857C173.438 276.248 172.307 276.443 171.573 276.443C168.357 276.443 165.64 275.241 163.423 272.836C161.252 270.494 160.167 267.7 160.167 264.452C160.167 261.142 161.229 258.332 163.352 256.021C165.538 253.648 168.263 252.462 171.526 252.462C173.711 252.462 175.71 253.015 177.521 254.124C177.833 254.311 177.99 254.475 177.99 254.616V254.616Z" fill="white"/>
<path d="M203.681 254.662C203.681 254.725 203.658 254.865 203.61 255.084C203.002 258.66 202.697 261.743 202.697 264.335C202.697 264.491 202.892 267.997 203.283 274.85L203.306 275.178C203.321 275.631 203.115 275.857 202.685 275.857C202.255 275.857 201.607 275.908 200.742 276.01C199.875 276.111 199.231 276.162 198.81 276.162C198.513 276.162 198.286 275.616 198.13 274.522C197.974 273.43 197.825 272.883 197.685 272.883C197.592 272.883 197.17 273.187 196.42 273.796C195.499 274.546 194.641 275.116 193.844 275.506C192.611 276.131 191.378 276.443 190.144 276.443C187.115 276.443 184.562 275.233 182.486 272.813C180.519 270.502 179.535 267.809 179.535 264.733C179.535 261.267 180.527 258.402 182.509 256.138C184.586 253.78 187.318 252.602 190.706 252.602C193.094 252.602 195.178 253.43 196.958 255.085C197.224 255.397 197.638 255.85 198.199 256.442C198.246 256.49 198.293 256.513 198.34 256.513C198.434 256.513 198.567 256.021 198.738 255.037C198.91 254.054 199.128 253.561 199.393 253.561C199.816 253.561 200.604 253.679 201.759 253.913C203.041 254.194 203.681 254.444 203.681 254.662V254.662ZM197.709 264.452C197.709 262.531 197.139 260.885 196 259.51C194.797 258.027 193.26 257.285 191.386 257.285C189.512 257.285 187.951 258.019 186.702 259.487C185.499 260.892 184.899 262.547 184.899 264.452C184.899 266.342 185.499 267.981 186.702 269.37C187.951 270.822 189.513 271.548 191.386 271.548C193.212 271.548 194.742 270.807 195.977 269.323C197.131 267.934 197.709 266.31 197.709 264.452V264.452Z" fill="white"/>
<path d="M230.917 264.592C230.917 267.747 229.918 270.486 227.919 272.812C225.827 275.263 223.227 276.489 220.121 276.489C218.185 276.489 216.491 275.888 215.039 274.686C214.383 274.077 213.727 273.461 213.072 272.835C212.978 272.883 212.916 273.008 212.884 273.21C212.869 273.303 212.861 274.179 212.861 275.833L212.838 282.438C212.838 282.937 212.658 283.188 212.298 283.188C209.894 283.188 208.474 283.156 208.037 283.094C207.677 283.047 207.498 282.844 207.498 282.485C207.498 280.486 207.513 277.488 207.544 273.491C207.576 269.495 207.591 266.497 207.591 264.498C207.591 260.83 207.357 257.386 206.888 254.17C206.857 253.983 206.842 253.858 206.842 253.796C206.842 253.624 206.92 253.515 207.076 253.468C207.669 253.436 208.535 253.35 209.675 253.21C211.205 252.93 212.064 252.788 212.251 252.788C212.516 252.788 212.688 253.256 212.766 254.193C212.813 254.819 212.852 255.435 212.884 256.044C212.884 256.169 212.93 256.294 213.024 256.419C213.134 256.356 213.258 256.247 213.399 256.091C215.585 253.858 217.794 252.742 220.027 252.742C223.118 252.742 225.725 253.952 227.848 256.372C229.895 258.699 230.917 261.439 230.917 264.592V264.592ZM225.437 264.498C225.437 262.625 224.852 260.978 223.681 259.557C222.447 258.043 220.91 257.285 219.067 257.285C217.256 257.285 215.773 258.066 214.617 259.627C213.556 261.032 213.025 262.672 213.025 264.545C213.025 266.45 213.571 268.105 214.664 269.51C215.866 271.025 217.396 271.782 219.254 271.782C221.034 271.782 222.533 270.994 223.751 269.417C224.875 267.949 225.437 266.31 225.437 264.498V264.498Z" fill="white"/>
<path d="M257.968 264.592C257.968 267.747 256.968 270.486 254.97 272.812C252.878 275.263 250.277 276.489 247.171 276.489C245.235 276.489 243.541 275.888 242.089 274.686C241.434 274.077 240.777 273.461 240.122 272.835C240.029 272.883 239.966 273.008 239.935 273.21C239.919 273.303 239.911 274.179 239.911 275.833L239.888 282.438C239.888 282.937 239.708 283.188 239.349 283.188C236.944 283.188 235.524 283.156 235.087 283.094C234.727 283.047 234.548 282.844 234.548 282.485C234.548 280.486 234.563 277.488 234.595 273.491C234.626 269.495 234.641 266.497 234.641 264.498C234.641 260.83 234.407 257.386 233.939 254.17C233.907 253.983 233.892 253.858 233.892 253.796C233.892 253.624 233.97 253.515 234.126 253.468C234.719 253.436 235.585 253.35 236.725 253.21C238.255 252.93 239.114 252.788 239.302 252.788C239.566 252.788 239.738 253.256 239.816 254.193C239.864 254.819 239.903 255.435 239.934 256.044C239.934 256.169 239.981 256.294 240.075 256.419C240.184 256.356 240.309 256.247 240.449 256.091C242.635 253.858 244.844 252.742 247.077 252.742C250.169 252.742 252.775 253.952 254.899 256.372C256.945 258.699 257.968 261.439 257.968 264.592V264.592ZM252.488 264.498C252.488 262.625 251.902 260.978 250.732 259.557C249.497 258.043 247.96 257.285 246.117 257.285C244.306 257.285 242.823 258.066 241.668 259.627C240.606 261.032 240.075 262.672 240.075 264.545C240.075 266.45 240.621 268.105 241.714 269.51C242.917 271.025 244.446 271.782 246.305 271.782C248.085 271.782 249.584 270.994 250.801 269.417C251.926 267.949 252.488 266.31 252.488 264.498V264.498Z" fill="white"/>
<path d="M12.1743 298.158C12.1743 298.228 12.1046 298.263 11.9646 298.263C11.8539 298.263 11.6921 298.254 11.4792 298.237C11.2662 298.22 11.1044 298.211 10.9938 298.211C10.8832 298.211 10.7169 298.22 10.4956 298.237C10.2737 298.254 10.1081 298.263 9.99744 298.263C9.83437 298.263 9.62589 297.822 9.372 296.939C9.11811 296.055 8.86039 295.608 8.59819 295.596C8.38268 295.584 7.8199 295.579 6.91051 295.579H5.52916C4.56733 295.579 4.01927 295.585 3.88561 295.596C3.67585 295.613 3.45267 296.062 3.21668 296.942C2.9807 297.822 2.79844 298.262 2.67054 298.262H0.703402C0.586371 298.262 0.528809 298.222 0.528809 298.14C0.528809 298.082 0.569104 297.951 0.650962 297.747L2.79332 291.889C2.97366 291.417 3.52173 290.056 4.43687 287.806C4.59995 287.433 4.82186 286.87 5.10132 286.118C5.17103 285.896 5.24714 285.785 5.32836 285.785C5.43899 285.785 5.60206 285.799 5.81822 285.829C6.03374 285.858 6.19681 285.872 6.30808 285.872C6.41296 285.872 6.57156 285.856 6.78452 285.824C6.99747 285.792 7.15289 285.776 7.25201 285.776C7.30445 285.776 7.37736 285.885 7.47073 286.1C7.61079 286.427 8.30145 288.184 9.54275 291.372C11.2969 295.855 12.1743 298.117 12.1743 298.158V298.158ZM8.1 293.332C8.1 293.162 7.83781 292.405 7.31341 291.058C6.80628 289.752 6.44751 288.895 6.23774 288.487C5.03098 291.565 4.42791 293.177 4.42791 293.323C4.42791 293.521 4.64918 293.637 5.09237 293.673C5.11539 293.678 5.40125 293.681 5.94931 293.681H6.84976C7.68305 293.681 8.1 293.564 8.1 293.332V293.332Z" fill="white"/>
<path d="M26.435 297.939C26.435 298.166 26.3678 298.28 26.2342 298.28C26.1465 298.28 26.0142 298.271 25.8364 298.254C25.6586 298.237 25.523 298.228 25.4297 298.228C25.3305 298.228 25.1815 298.234 24.9839 298.245C24.7856 298.257 24.6373 298.262 24.5382 298.262C24.416 298.262 24.3546 298.125 24.3546 297.851C24.3546 297.583 24.3648 297.182 24.3853 296.649C24.4058 296.115 24.416 295.714 24.416 295.446C24.416 293.972 24.4103 293.15 24.3988 292.981C24.3521 292.381 24.2293 291.967 24.0317 291.74C23.8046 291.495 23.3992 291.373 22.8166 291.373C22.4495 291.373 22.0351 291.547 21.5753 291.897C21.0969 292.264 20.8494 292.626 20.8322 292.981C20.8085 293.436 20.797 294.267 20.797 295.473C20.797 295.758 20.8085 296.186 20.8322 296.758C20.8552 297.33 20.8674 297.758 20.8674 298.044C20.8674 298.201 20.8149 298.28 20.71 298.28C20.6052 298.28 20.4523 298.271 20.2509 298.253C20.0494 298.236 19.8966 298.227 19.7917 298.227C19.6983 298.227 19.5615 298.233 19.3805 298.244C19.1995 298.257 19.0626 298.262 18.9693 298.262C18.8522 298.262 18.7947 298.177 18.7947 298.008C18.7947 297.728 18.8036 297.307 18.8209 296.745C18.8382 296.182 18.8471 295.761 18.8471 295.481V293.374C18.8471 292.715 18.7685 292.246 18.6111 291.966C18.3892 291.57 17.9672 291.372 17.3436 291.372C16.9766 291.372 16.5391 291.526 16.032 291.835C15.4724 292.173 15.1923 292.514 15.1923 292.858V295.411C15.1923 295.703 15.1949 296.137 15.2013 296.714C15.207 297.291 15.2102 297.723 15.2102 298.008C15.2102 298.177 15.1431 298.261 15.0094 298.261H13.3831C13.2661 298.261 13.2085 298.182 13.2085 298.025C13.2085 297.553 13.2111 296.843 13.2175 295.896C13.2233 294.949 13.2265 294.239 13.2265 293.767C13.2265 292.7 13.1126 291.637 12.8856 290.576C12.8683 290.501 12.8594 290.439 12.8594 290.392C12.8594 290.317 12.8856 290.273 12.938 290.261C13.1535 290.238 13.4682 290.195 13.8826 290.13C14.0751 290.072 14.3635 290.008 14.7485 289.938L14.8182 289.929C14.8879 289.929 14.9538 290.134 15.0152 290.545C15.0766 290.956 15.1303 291.162 15.177 291.162L15.6144 290.777C15.9584 290.479 16.3019 290.243 16.6459 290.069C17.1409 289.812 17.6365 289.684 18.1322 289.684C19.4726 289.684 20.327 290.231 20.694 291.327C21.0554 290.861 21.5043 290.476 22.0402 290.173C22.6113 289.846 23.1766 289.683 23.7362 289.683C24.8144 289.683 25.5607 289.998 25.9745 290.628C26.2719 291.094 26.4202 291.831 26.4202 292.84C26.4202 293.032 26.4145 293.33 26.403 293.732C26.3908 294.134 26.3857 294.432 26.3857 294.624C26.3857 294.991 26.3947 295.544 26.4119 296.281C26.4292 297.018 26.435 297.572 26.435 297.939V297.939Z" fill="white"/>
<path d="M36.8399 294.04C36.8399 295.194 36.4812 296.199 35.7643 297.056C35.0007 297.966 34.0504 298.42 32.914 298.42C32.1561 298.42 31.4885 298.228 30.9117 297.843C30.6782 297.645 30.4455 297.45 30.212 297.258C30.1474 297.275 30.1052 297.45 30.0854 297.782C30.0649 298.115 30.017 298.28 29.9409 298.28H28.0959C28.0262 298.28 27.991 298.242 27.991 298.166C27.991 298.172 27.9968 298.12 28.0083 298.009C28.1016 297.077 28.1483 295.293 28.1483 292.658C28.1483 291.579 28.1016 289.997 28.0083 287.91C27.9501 286.582 27.9207 285.999 27.9207 286.162C27.9207 286.01 27.9961 285.926 28.1477 285.909C28.3574 285.903 28.6689 285.891 29.0833 285.874C29.1645 285.868 29.3308 285.847 29.5815 285.812C29.7912 285.777 29.9601 285.76 30.0886 285.76C30.182 285.76 30.2287 285.826 30.2287 285.961C30.2287 286.159 30.2139 286.462 30.1852 286.87C30.1557 287.278 30.1417 287.584 30.1417 287.788C30.1417 288.091 30.1283 288.548 30.102 289.157C30.0758 289.766 30.0624 290.222 30.0624 290.525C30.0624 290.747 30.1027 290.858 30.1845 290.858C30.2248 290.858 30.2689 290.826 30.3156 290.762C30.9564 289.963 31.8051 289.564 32.8603 289.564C34.067 289.564 35.0429 290.016 35.7892 290.919C36.4901 291.77 36.8399 292.81 36.8399 294.04V294.04ZM34.8638 293.961C34.8638 293.267 34.6451 292.655 34.2083 292.125C33.7421 291.56 33.1679 291.277 32.4861 291.277C31.7865 291.277 31.2039 291.554 30.7377 292.108C30.2888 292.632 30.0643 293.25 30.0643 293.961C30.0643 294.684 30.2888 295.307 30.7377 295.832C31.2039 296.38 31.7923 296.654 32.504 296.654C33.1915 296.654 33.7658 296.371 34.2262 295.806C34.6509 295.281 34.8638 294.666 34.8638 293.961V293.961Z" fill="white"/>
<path d="M40.3636 287.806C40.3636 288.523 39.9639 288.881 39.1658 288.881C38.3555 288.881 37.9507 288.523 37.9507 287.806C37.9507 287.485 38.076 287.22 38.3267 287.01C38.5595 286.812 38.8396 286.713 39.1664 286.713C39.4926 286.713 39.7739 286.814 40.0099 287.019C40.2459 287.224 40.3636 287.485 40.3636 287.806V287.806ZM40.3022 290.175C40.3022 290.624 40.2747 291.302 40.219 292.208C40.1634 293.114 40.1359 293.795 40.1359 294.249C40.1359 294.675 40.1449 295.312 40.1621 296.16C40.1794 297.008 40.1883 297.641 40.1883 298.062C40.1883 298.184 40.1359 298.245 40.031 298.245H38.3261C38.2039 298.245 38.1425 298.126 38.1425 297.886C38.1425 297.484 38.1528 296.88 38.1732 296.072C38.1937 295.264 38.2039 294.657 38.2039 294.249C38.2039 293.794 38.17 293.112 38.1035 292.203C38.0364 291.294 38.0031 290.612 38.0031 290.157C38.0031 290.058 38.0645 290.009 38.1867 290.009C38.2916 290.009 38.4534 290.023 38.6721 290.052C38.8908 290.082 39.0551 290.096 39.1658 290.096C39.2764 290.096 39.4414 290.082 39.6595 290.052C39.8775 290.023 40.0425 290.009 40.1532 290.009C40.2523 290.009 40.3022 290.065 40.3022 290.175V290.175Z" fill="white"/>
<path d="M49.4389 293.568C49.4389 293.999 49.2522 294.288 48.8794 294.433C48.6287 294.527 46.8246 294.699 43.4672 294.95C43.5426 295.462 43.8259 295.899 44.3151 296.261C44.7814 296.605 45.2827 296.777 45.8193 296.777C46.7402 296.777 47.5856 296.48 48.355 295.885C48.4483 295.81 48.5417 295.734 48.6351 295.658C48.6817 295.658 48.7125 295.664 48.7272 295.675C48.7412 295.688 48.8506 295.89 49.0552 296.283C49.2592 296.676 49.3616 296.887 49.3616 296.917C49.3616 296.952 49.3149 297.018 49.2215 297.118C48.3645 298.027 47.2659 298.482 45.9254 298.482C44.5729 298.482 43.4947 298.078 42.6902 297.27C41.8856 296.463 41.4834 295.386 41.4834 294.04C41.4834 292.839 41.8684 291.792 42.6377 290.901C43.448 289.974 44.4418 289.51 45.6191 289.51C46.7146 289.51 47.6304 289.913 48.3645 290.717C49.0802 291.499 49.4389 292.448 49.4389 293.568V293.568ZM47.358 293.034C47.358 292.55 47.1667 292.122 46.7849 291.749C46.4032 291.376 45.9728 291.189 45.4951 291.189C44.9585 291.189 44.4821 291.405 44.0657 291.836C43.6488 292.268 43.4403 292.752 43.4403 293.288C43.4403 293.41 43.5452 293.472 43.755 293.472C44.6177 293.472 45.6492 293.384 46.8502 293.209C47.1885 293.162 47.358 293.104 47.358 293.034V293.034Z" fill="white"/>
<path d="M58.366 298.088C58.366 298.216 58.3078 298.28 58.1914 298.28C57.9989 298.28 57.7118 298.277 57.33 298.271C56.9482 298.265 56.661 298.262 56.4685 298.262C56.3637 298.262 56.3112 298.178 56.3112 298.009C56.3112 297.724 56.3202 297.289 56.3374 296.706C56.3547 296.124 56.3637 295.686 56.3637 295.395C56.3637 295.162 56.3605 294.813 56.3547 294.35C56.349 293.886 56.3458 293.538 56.3458 293.305C56.3458 292.64 56.2498 292.172 56.0573 291.897C55.8239 291.57 55.3929 291.407 54.7636 291.407C54.472 291.407 54.0672 291.57 53.5485 291.897C53.0005 292.241 52.7268 292.548 52.7268 292.816V298.061C52.7268 298.207 52.6711 298.28 52.5605 298.28C52.3737 298.28 52.0943 298.277 51.7208 298.271C51.348 298.265 51.0678 298.262 50.8811 298.262C50.759 298.262 50.6976 298.196 50.6976 298.061C50.6976 297.601 50.7046 296.91 50.7193 295.989C50.7334 295.069 50.7411 294.375 50.7411 293.908C50.7411 292.667 50.61 291.522 50.3478 290.472C50.3305 290.42 50.3215 290.382 50.3215 290.359C50.3215 290.3 50.3593 290.259 50.4354 290.236C50.4757 290.231 50.8095 290.176 51.4362 290.075C52.0623 289.973 52.3904 289.922 52.4198 289.922C52.455 289.922 52.478 289.968 52.4895 290.062C52.5183 290.423 52.5854 290.788 52.6903 291.155C52.9934 290.916 53.3925 290.618 53.8881 290.263C54.5001 289.89 55.0917 289.703 55.6628 289.703C56.7582 289.703 57.5077 290.021 57.91 290.656C58.2074 291.122 58.3557 291.877 58.3557 292.92C58.3557 293.101 58.3513 293.378 58.3423 293.751C58.3334 294.124 58.3289 294.404 58.3289 294.591C58.3289 294.981 58.3346 295.564 58.3461 296.339C58.3602 297.114 58.366 297.698 58.366 298.088V298.088Z" fill="white"/>
<path d="M64.8972 296.654C64.8972 296.782 64.8851 296.957 64.8621 297.178C64.8326 297.453 64.8154 297.63 64.8096 297.712C64.8039 297.817 64.7949 297.881 64.7834 297.904C64.7597 297.944 64.7047 297.986 64.6171 298.026C64.1388 298.253 63.3874 298.367 62.3616 298.367C60.9975 298.367 60.3158 297.749 60.3158 296.514C60.3158 296.019 60.3273 295.274 60.3509 294.28C60.374 293.286 60.3861 292.541 60.3861 292.046C60.3861 291.807 60.2665 291.679 60.0273 291.661C59.8118 291.661 59.5989 291.658 59.3891 291.652C59.267 291.623 59.2056 291.384 59.2056 290.935C59.2056 290.766 59.2171 290.589 59.2408 290.402C59.258 290.262 59.3514 290.178 59.5209 290.149C59.6667 290.149 59.8093 290.146 59.9493 290.14C60.2173 290.128 60.3516 290.009 60.3516 289.781C60.3516 289.548 60.3439 289.192 60.3298 288.714C60.3151 288.237 60.3081 287.878 60.3081 287.639C60.3081 287.213 60.3893 287 60.553 287C60.6055 287 61.1529 287.091 62.1966 287.272C62.3302 287.289 62.3974 287.353 62.3974 287.464C62.3974 287.721 62.3782 288.106 62.3405 288.618C62.3021 289.131 62.2836 289.516 62.2836 289.773C62.2836 289.942 62.3622 290.026 62.5195 290.026H64.6178C64.7169 290.026 64.7661 290.061 64.7661 290.131C64.7661 290.201 64.7559 290.313 64.7354 290.467C64.715 290.621 64.7047 290.737 64.7047 290.813C64.7047 290.9 64.7073 291.035 64.7137 291.215C64.7195 291.395 64.7227 291.53 64.7227 291.617C64.7227 291.728 64.6408 291.783 64.4777 291.783C64.2443 291.783 63.8919 291.767 63.42 291.735C62.948 291.703 62.595 291.687 62.3622 291.687C62.3155 291.687 62.2803 291.854 62.2573 292.186C62.2279 292.599 62.2138 293.179 62.2138 293.926V295.228C62.2138 295.73 62.2605 296.08 62.3539 296.278C62.4939 296.581 62.7824 296.733 63.2198 296.733C63.4001 296.733 63.6655 296.693 64.0154 296.614C64.3652 296.536 64.6242 296.496 64.7936 296.496C64.8621 296.497 64.8972 296.549 64.8972 296.654V296.654Z" fill="white"/>
<path d="M73.553 293.568C73.553 293.999 73.3662 294.288 72.9934 294.433C72.7427 294.527 70.9386 294.699 67.5812 294.95C67.6566 295.462 67.9399 295.899 68.4292 296.261C68.8954 296.605 69.3968 296.777 69.9333 296.777C70.8542 296.777 71.6996 296.48 72.469 295.885C72.5623 295.81 72.6557 295.734 72.7491 295.658C72.7958 295.658 72.8265 295.664 72.8412 295.675C72.8552 295.688 72.9646 295.89 73.1692 296.283C73.3733 296.676 73.4756 296.887 73.4756 296.917C73.4756 296.952 73.4289 297.018 73.3355 297.118C72.4786 298.027 71.3799 298.482 70.0395 298.482C68.6869 298.482 67.6087 298.078 66.8042 297.27C65.9997 296.463 65.5974 295.386 65.5974 294.04C65.5974 292.839 65.9824 291.792 66.7517 290.901C67.562 289.974 68.5558 289.51 69.7331 289.51C70.8286 289.51 71.7444 289.913 72.4786 290.717C73.1942 291.499 73.553 292.448 73.553 293.568V293.568ZM71.472 293.034C71.472 292.55 71.2808 292.122 70.899 291.749C70.5172 291.376 70.0868 291.189 69.6091 291.189C69.0725 291.189 68.5961 291.405 68.1798 291.836C67.7628 292.268 67.5543 292.752 67.5543 293.288C67.5543 293.41 67.6592 293.472 67.869 293.472C68.7317 293.472 69.7632 293.384 70.9642 293.209C71.3025 293.162 71.472 293.104 71.472 293.034V293.034Z" fill="white"/>
<path d="M78.8688 295.57C78.8688 296.438 78.5221 297.135 77.8283 297.66C77.199 298.138 76.4322 298.377 75.5286 298.377C75.1788 298.377 74.9805 298.368 74.9338 298.35C74.8347 298.304 74.7855 298.161 74.7855 297.922C74.7855 297.794 74.7695 297.602 74.7375 297.345C74.7055 297.089 74.6895 296.899 74.6895 296.777C74.6895 296.701 74.742 296.651 74.8469 296.628C74.9223 296.611 75.0304 296.611 75.1705 296.628C75.3508 296.646 75.4384 296.655 75.4327 296.655C76.5345 296.655 77.0851 296.317 77.0851 295.64C77.0851 295.32 76.8434 295.025 76.3593 294.757C75.5727 294.325 75.1206 294.061 75.0042 293.962C74.5201 293.548 74.2783 293.005 74.2783 292.335C74.2783 291.461 74.6077 290.779 75.2664 290.289C75.8611 289.852 76.6126 289.634 77.5219 289.634C77.6032 289.634 77.6633 289.672 77.701 289.748C77.7387 289.823 77.8116 290.059 77.9197 290.456C78.0271 290.852 78.0815 291.091 78.0815 291.173C78.0815 291.237 78.0259 291.277 77.9152 291.295C77.5424 291.347 77.1664 291.396 76.7871 291.443C76.3382 291.565 76.1137 291.81 76.1137 292.177C76.1137 292.439 76.3497 292.705 76.8217 292.973C77.5213 293.363 77.9638 293.646 78.1506 293.821C78.6296 294.275 78.8688 294.859 78.8688 295.57V295.57Z" fill="white"/>
<path d="M86.8165 286.136L86.8075 286.25C86.679 288.418 86.6151 290.28 86.6151 291.836C86.6151 292.53 86.6266 293.569 86.6502 294.953C86.6732 296.338 86.6854 297.374 86.6854 298.061C86.6854 298.196 86.6387 298.262 86.5453 298.262H84.8756C84.7707 298.262 84.7183 298.196 84.7183 298.061C84.7183 297.374 84.724 296.338 84.7355 294.953C84.747 293.569 84.7528 292.53 84.7528 291.836C84.7528 291.207 84.7221 290.261 84.6607 288.999C84.5993 287.737 84.5686 286.794 84.5686 286.17C84.5686 286.053 84.63 285.996 84.7522 285.996C84.857 285.996 85.0144 286.005 85.2241 286.022C85.4339 286.039 85.5912 286.048 85.6961 286.048C85.8067 286.048 85.9698 286.039 86.1859 286.022C86.4015 286.005 86.562 285.996 86.6669 285.996C86.7717 285.996 86.8223 286.042 86.8165 286.136Z" fill="white"/>
<path d="M90.8213 287.806C90.8213 288.523 90.4217 288.881 89.6235 288.881C88.8133 288.881 88.4084 288.523 88.4084 287.806C88.4084 287.485 88.5338 287.22 88.7845 287.01C89.0173 286.812 89.2974 286.713 89.6242 286.713C89.9503 286.713 90.2317 286.814 90.4677 287.019C90.7037 287.224 90.8213 287.485 90.8213 287.806V287.806ZM90.7599 290.175C90.7599 290.624 90.7325 291.302 90.6768 292.208C90.6212 293.114 90.5937 293.795 90.5937 294.249C90.5937 294.675 90.6026 295.312 90.6199 296.16C90.6372 297.008 90.6461 297.641 90.6461 298.062C90.6461 298.184 90.5937 298.245 90.4888 298.245H88.7838C88.6617 298.245 88.6003 298.126 88.6003 297.886C88.6003 297.484 88.6105 296.88 88.631 296.072C88.6515 295.264 88.6617 294.657 88.6617 294.249C88.6617 293.794 88.6278 293.112 88.5613 292.203C88.4942 291.294 88.4609 290.612 88.4609 290.157C88.4609 290.058 88.5223 290.009 88.6444 290.009C88.7493 290.009 88.9111 290.023 89.1298 290.052C89.3485 290.082 89.5129 290.096 89.6235 290.096C89.7342 290.096 89.8992 290.082 90.1172 290.052C90.3353 290.023 90.5003 290.009 90.6109 290.009C90.7107 290.009 90.7599 290.065 90.7599 290.175V290.175Z" fill="white"/>
<path d="M105.781 297.939C105.781 298.166 105.714 298.28 105.58 298.28C105.492 298.28 105.36 298.271 105.182 298.254C105.004 298.237 104.869 298.228 104.775 298.228C104.676 298.228 104.527 298.234 104.33 298.245C104.131 298.257 103.983 298.262 103.884 298.262C103.762 298.262 103.7 298.125 103.7 297.851C103.7 297.583 103.711 297.182 103.731 296.649C103.751 296.115 103.762 295.714 103.762 295.446C103.762 293.972 103.756 293.15 103.744 292.981C103.698 292.381 103.575 291.967 103.377 291.74C103.15 291.495 102.745 291.373 102.162 291.373C101.795 291.373 101.381 291.547 100.921 291.897C100.443 292.264 100.195 292.626 100.178 292.981C100.154 293.436 100.143 294.267 100.143 295.473C100.143 295.758 100.154 296.186 100.178 296.758C100.201 297.33 100.213 297.758 100.213 298.044C100.213 298.201 100.161 298.28 100.056 298.28C99.9509 298.28 99.798 298.271 99.5966 298.253C99.3951 298.236 99.2423 298.227 99.1374 298.227C99.044 298.227 98.9072 298.233 98.7262 298.244C98.5452 298.257 98.4083 298.262 98.315 298.262C98.1979 298.262 98.1404 298.177 98.1404 298.008C98.1404 297.728 98.1493 297.307 98.1666 296.745C98.1839 296.182 98.1928 295.761 98.1928 295.481V293.374C98.1928 292.715 98.1142 292.246 97.9569 291.966C97.7349 291.57 97.3129 291.372 96.6893 291.372C96.3223 291.372 95.8848 291.526 95.3777 291.835C94.8181 292.173 94.538 292.514 94.538 292.858V295.411C94.538 295.703 94.5406 296.137 94.547 296.714C94.5527 297.291 94.5559 297.723 94.5559 298.008C94.5559 298.177 94.4888 298.261 94.3551 298.261H92.7288C92.6118 298.261 92.5542 298.182 92.5542 298.025C92.5542 297.553 92.5568 296.843 92.5632 295.896C92.569 294.949 92.5722 294.239 92.5722 293.767C92.5722 292.7 92.4583 291.637 92.2313 290.576C92.214 290.501 92.2051 290.439 92.2051 290.392C92.2051 290.317 92.2313 290.273 92.2837 290.261C92.4992 290.238 92.8139 290.195 93.2283 290.13C93.4208 290.072 93.7092 290.008 94.0942 289.938L94.1639 289.929C94.2336 289.929 94.2995 290.134 94.3609 290.545C94.4223 290.956 94.476 291.162 94.5227 291.162L94.9601 290.777C95.3042 290.479 95.6476 290.243 95.9916 290.069C96.4866 289.812 96.9822 289.684 97.4779 289.684C98.8183 289.684 99.6727 290.231 100.04 291.327C100.401 290.861 100.85 290.476 101.386 290.173C101.957 289.846 102.522 289.683 103.082 289.683C104.16 289.683 104.906 289.998 105.32 290.628C105.618 291.094 105.766 291.831 105.766 292.84C105.766 293.032 105.76 293.33 105.749 293.732C105.737 294.134 105.731 294.432 105.731 294.624C105.731 294.991 105.74 295.544 105.758 296.281C105.775 297.018 105.781 297.572 105.781 297.939V297.939Z" fill="white"/>
<path d="M116.255 294.057C116.255 295.235 115.882 296.257 115.136 297.126C114.355 298.042 113.385 298.499 112.224 298.499C111.502 298.499 110.869 298.274 110.327 297.825C110.082 297.598 109.837 297.368 109.593 297.135C109.558 297.152 109.535 297.199 109.523 297.275C109.517 297.31 109.514 297.636 109.514 298.254L109.505 300.719C109.505 300.906 109.438 300.999 109.304 300.999C108.407 300.999 107.876 300.987 107.713 300.964C107.579 300.947 107.513 300.871 107.513 300.737C107.513 299.991 107.518 298.872 107.53 297.38C107.541 295.888 107.547 294.769 107.547 294.022C107.547 292.652 107.459 291.368 107.285 290.167C107.273 290.097 107.268 290.05 107.268 290.027C107.268 289.962 107.296 289.922 107.355 289.904C107.576 289.892 107.9 289.861 108.326 289.809C108.897 289.704 109.218 289.651 109.288 289.651C109.387 289.651 109.451 289.826 109.48 290.176C109.498 290.408 109.512 290.639 109.524 290.866C109.524 290.913 109.541 290.96 109.576 291.006C109.617 290.983 109.664 290.942 109.716 290.884C110.532 290.05 111.357 289.634 112.191 289.634C113.345 289.634 114.318 290.085 115.111 290.989C115.873 291.857 116.255 292.88 116.255 294.057V294.057ZM114.209 294.022C114.209 293.323 113.991 292.707 113.554 292.177C113.094 291.612 112.519 291.329 111.832 291.329C111.155 291.329 110.602 291.621 110.17 292.203C109.774 292.728 109.576 293.34 109.576 294.04C109.576 294.751 109.78 295.368 110.188 295.893C110.637 296.458 111.208 296.741 111.901 296.741C112.566 296.741 113.126 296.447 113.58 295.858C114 295.311 114.209 294.699 114.209 294.022Z" fill="white"/>
<path d="M119.884 287.806C119.884 288.523 119.484 288.881 118.686 288.881C117.876 288.881 117.471 288.523 117.471 287.806C117.471 287.485 117.597 287.22 117.847 287.01C118.08 286.812 118.36 286.713 118.687 286.713C119.013 286.713 119.294 286.814 119.53 287.019C119.766 287.224 119.884 287.485 119.884 287.806V287.806ZM119.823 290.175C119.823 290.624 119.796 291.302 119.74 292.208C119.685 293.114 119.657 293.795 119.657 294.249C119.657 294.675 119.666 295.312 119.683 296.16C119.701 297.008 119.709 297.641 119.709 298.062C119.709 298.184 119.657 298.245 119.552 298.245H117.847C117.725 298.245 117.664 298.126 117.664 297.886C117.664 297.484 117.674 296.88 117.694 296.072C117.715 295.264 117.725 294.657 117.725 294.249C117.725 293.794 117.691 293.112 117.625 292.203C117.558 291.294 117.524 290.612 117.524 290.157C117.524 290.058 117.586 290.009 117.708 290.009C117.813 290.009 117.974 290.023 118.193 290.052C118.412 290.082 118.576 290.096 118.687 290.096C118.798 290.096 118.963 290.082 119.181 290.052C119.399 290.023 119.564 290.009 119.674 290.009C119.773 290.009 119.823 290.065 119.823 290.175V290.175Z" fill="white"/>
<path d="M129.475 294.005C129.475 295.223 129.076 296.264 128.277 297.126C127.461 298.019 126.45 298.464 125.244 298.464C124.031 298.464 123.017 298.022 122.201 297.135C121.402 296.278 121.003 295.241 121.003 294.023C121.003 292.805 121.402 291.767 122.201 290.91C123.023 290.036 124.037 289.599 125.244 289.599C126.444 289.599 127.452 290.036 128.268 290.91C129.073 291.761 129.475 292.792 129.475 294.005V294.005ZM127.631 294.022C127.631 293.311 127.412 292.705 126.975 292.203C126.521 291.673 125.944 291.408 125.244 291.408C124.545 291.408 123.965 291.67 123.504 292.195C123.067 292.702 122.849 293.31 122.849 294.022C122.849 294.721 123.07 295.328 123.513 295.84C123.979 296.383 124.556 296.653 125.244 296.653C125.937 296.653 126.514 296.382 126.975 295.84C127.412 295.328 127.631 294.722 127.631 294.022Z" fill="white"/>
<path d="M134.8 295.57C134.8 296.438 134.453 297.135 133.759 297.66C133.13 298.138 132.362 298.377 131.459 298.377C131.11 298.377 130.911 298.368 130.865 298.35C130.766 298.304 130.716 298.161 130.716 297.922C130.716 297.794 130.7 297.602 130.668 297.345C130.636 297.089 130.62 296.899 130.62 296.777C130.62 296.701 130.673 296.651 130.778 296.628C130.853 296.611 130.961 296.611 131.101 296.628C131.282 296.646 131.369 296.655 131.364 296.655C132.465 296.655 133.016 296.317 133.016 295.64C133.016 295.32 132.774 295.025 132.29 294.757C131.504 294.325 131.051 294.061 130.935 293.962C130.451 293.548 130.209 293.005 130.209 292.335C130.209 291.461 130.539 290.779 131.197 290.289C131.792 289.852 132.543 289.634 133.453 289.634C133.535 289.634 133.594 289.672 133.632 289.748C133.67 289.823 133.743 290.059 133.851 290.456C133.959 290.852 134.012 291.091 134.012 291.173C134.012 291.237 133.957 291.277 133.846 291.295C133.473 291.347 133.097 291.396 132.718 291.443C132.269 291.565 132.045 291.81 132.045 292.177C132.045 292.439 132.281 292.705 132.753 292.973C133.452 293.363 133.895 293.646 134.081 293.821C134.56 294.275 134.8 294.859 134.8 295.57V295.57Z" fill="white"/>
<path d="M138.481 296.182C138.481 296.777 138.379 297.304 138.175 297.765C138.047 298.056 137.697 298.517 137.125 299.146C136.513 299.834 136.094 300.178 135.866 300.178C135.813 300.178 135.673 300.043 135.446 299.775C135.219 299.507 135.105 299.338 135.105 299.268C135.105 299.28 135.258 299.077 135.565 298.661C135.871 298.244 136.035 297.896 136.058 297.616C136.058 297.656 136.058 297.35 136.058 296.697C136.058 296.47 136.376 296.275 137.011 296.112C137.518 295.984 137.944 295.919 138.288 295.919C138.417 295.92 138.481 296.007 138.481 296.182V296.182Z" fill="white"/>
<path d="M153.126 294.057C153.126 295.235 152.754 296.257 152.007 297.126C151.226 298.042 150.256 298.499 149.096 298.499C148.373 298.499 147.74 298.274 147.198 297.825C146.953 297.598 146.708 297.368 146.464 297.135C146.429 297.152 146.406 297.199 146.394 297.275C146.389 297.31 146.385 297.636 146.385 298.254L146.376 300.72C146.376 300.907 146.31 301 146.176 301C145.278 301 144.748 300.988 144.584 300.965C144.45 300.948 144.384 300.871 144.384 300.738C144.384 299.991 144.389 298.872 144.401 297.38C144.412 295.888 144.418 294.769 144.418 294.023C144.418 292.653 144.331 291.368 144.156 290.167C144.144 290.098 144.139 290.05 144.139 290.027C144.139 289.963 144.168 289.922 144.226 289.905C144.448 289.893 144.772 289.862 145.197 289.809C145.769 289.704 146.089 289.652 146.159 289.652C146.258 289.652 146.322 289.826 146.351 290.176C146.369 290.409 146.383 290.64 146.395 290.867C146.395 290.914 146.412 290.96 146.447 291.007C146.488 290.984 146.535 290.942 146.587 290.885C147.403 290.051 148.228 289.635 149.062 289.635C150.216 289.635 151.189 290.086 151.982 290.99C152.745 291.857 153.126 292.88 153.126 294.057V294.057ZM151.08 294.022C151.08 293.323 150.861 292.707 150.424 292.177C149.964 291.612 149.39 291.329 148.702 291.329C148.026 291.329 147.472 291.621 147.041 292.203C146.644 292.728 146.446 293.34 146.446 294.039C146.446 294.751 146.65 295.368 147.058 295.893C147.507 296.458 148.078 296.741 148.772 296.741C149.436 296.741 149.996 296.447 150.451 295.858C150.87 295.311 151.08 294.699 151.08 294.022V294.022Z" fill="white"/>
<path d="M161.887 293.568C161.887 293.999 161.7 294.288 161.327 294.433C161.077 294.527 159.273 294.699 155.915 294.95C155.991 295.462 156.274 295.899 156.763 296.261C157.229 296.605 157.731 296.777 158.267 296.777C159.188 296.777 160.034 296.48 160.803 295.885C160.896 295.81 160.99 295.734 161.083 295.658C161.13 295.658 161.16 295.664 161.175 295.675C161.19 295.687 161.299 295.89 161.503 296.283C161.708 296.676 161.81 296.887 161.81 296.917C161.81 296.952 161.763 297.018 161.669 297.118C160.813 298.027 159.714 298.482 158.373 298.482C157.022 298.482 155.943 298.078 155.138 297.27C154.334 296.463 153.931 295.386 153.931 294.04C153.931 292.839 154.316 291.792 155.086 290.901C155.896 289.974 156.89 289.51 158.067 289.51C159.163 289.51 160.078 289.913 160.813 290.717C161.528 291.499 161.887 292.448 161.887 293.568V293.568ZM159.806 293.034C159.806 292.55 159.615 292.122 159.233 291.749C158.851 291.376 158.421 291.189 157.943 291.189C157.406 291.189 156.93 291.405 156.514 291.836C156.097 292.268 155.888 292.752 155.888 293.288C155.888 293.41 155.993 293.472 156.203 293.472C157.066 293.472 158.097 293.384 159.298 293.209C159.636 293.162 159.806 293.104 159.806 293.034Z" fill="white"/>
<path d="M168.112 290.053C168.112 290.694 168.069 291.277 167.981 291.801C167.964 291.936 167.905 292.002 167.806 292.002C167.684 292.002 167.499 291.989 167.251 291.963C167.003 291.936 166.815 291.923 166.687 291.923C165.953 291.923 165.484 292.129 165.28 292.544C165.157 292.795 165.096 293.316 165.096 294.109V295.071C165.096 295.397 165.109 295.892 165.136 296.557C165.162 297.221 165.175 297.716 165.175 298.043C165.175 298.2 165.109 298.279 164.975 298.279C164.794 298.279 164.52 298.276 164.153 298.27C163.786 298.264 163.511 298.261 163.331 298.261C163.197 298.261 163.13 298.188 163.13 298.042C163.13 297.57 163.138 296.859 163.152 295.909C163.166 294.959 163.174 294.244 163.174 293.767C163.174 292.327 163.039 291.17 162.771 290.295C162.759 290.249 162.754 290.213 162.754 290.19C162.754 290.121 162.793 290.071 162.868 290.042C163.084 290.019 163.387 289.984 163.777 289.937C164.407 289.82 164.698 289.763 164.652 289.763C164.745 289.763 164.806 289.935 164.835 290.279C164.865 290.623 164.917 290.795 164.992 290.795C165.005 290.795 165.019 290.789 165.036 290.778C165.275 290.626 165.514 290.474 165.753 290.323C166.015 290.165 166.283 290.048 166.557 289.973C166.784 289.903 167.077 289.868 167.432 289.868C167.885 289.869 168.112 289.931 168.112 290.053V290.053Z" fill="white"/>
<path d="M173.166 295.57C173.166 296.438 172.82 297.135 172.126 297.66C171.497 298.138 170.73 298.377 169.826 298.377C169.476 298.377 169.279 298.368 169.231 298.35C169.132 298.304 169.083 298.161 169.083 297.922C169.083 297.794 169.067 297.602 169.035 297.345C169.003 297.089 168.987 296.899 168.987 296.777C168.987 296.701 169.04 296.651 169.144 296.628C169.22 296.611 169.328 296.611 169.468 296.628C169.648 296.646 169.736 296.655 169.73 296.655C170.832 296.655 171.383 296.317 171.383 295.64C171.383 295.32 171.141 295.025 170.657 294.757C169.87 294.325 169.418 294.061 169.302 293.962C168.818 293.548 168.576 293.005 168.576 292.335C168.576 291.461 168.905 290.779 169.564 290.289C170.159 289.852 170.91 289.634 171.82 289.634C171.901 289.634 171.961 289.672 171.999 289.748C172.036 289.823 172.109 290.059 172.217 290.456C172.325 290.852 172.379 291.091 172.379 291.173C172.379 291.237 172.323 291.277 172.213 291.295C171.84 291.347 171.464 291.396 171.085 291.443C170.636 291.565 170.411 291.81 170.411 292.177C170.411 292.439 170.647 292.705 171.119 292.973C171.819 293.363 172.261 293.646 172.448 293.821C172.927 294.275 173.166 294.859 173.166 295.57V295.57Z" fill="white"/>
<path d="M182.346 294.005C182.346 295.223 181.947 296.264 181.148 297.126C180.332 298.019 179.321 298.464 178.115 298.464C176.902 298.464 175.888 298.022 175.072 297.135C174.273 296.278 173.874 295.241 173.874 294.023C173.874 292.805 174.273 291.767 175.072 290.91C175.894 290.036 176.908 289.599 178.115 289.599C179.316 289.599 180.324 290.036 181.14 290.91C181.944 291.761 182.346 292.792 182.346 294.005V294.005ZM180.501 294.022C180.501 293.311 180.283 292.705 179.846 292.203C179.391 291.673 178.814 291.408 178.115 291.408C177.415 291.408 176.835 291.67 176.375 292.195C175.937 292.702 175.719 293.31 175.719 294.022C175.719 294.721 175.941 295.328 176.383 295.84C176.85 296.383 177.427 296.653 178.115 296.653C178.809 296.653 179.385 296.382 179.846 295.84C180.283 295.328 180.501 294.722 180.501 294.022Z" fill="white"/>
<path d="M191.282 298.088C191.282 298.216 191.224 298.28 191.108 298.28C190.915 298.28 190.628 298.277 190.246 298.271C189.864 298.265 189.577 298.262 189.385 298.262C189.28 298.262 189.227 298.178 189.227 298.009C189.227 297.724 189.236 297.289 189.254 296.706C189.271 296.124 189.28 295.686 189.28 295.395C189.28 295.162 189.277 294.813 189.271 294.35C189.265 293.886 189.262 293.538 189.262 293.305C189.262 292.64 189.166 292.172 188.974 291.897C188.741 291.57 188.309 291.407 187.68 291.407C187.388 291.407 186.983 291.57 186.465 291.897C185.917 292.241 185.643 292.548 185.643 292.816V298.061C185.643 298.207 185.587 298.28 185.477 298.28C185.29 298.28 185.011 298.277 184.637 298.271C184.264 298.265 183.984 298.262 183.797 298.262C183.675 298.262 183.614 298.196 183.614 298.061C183.614 297.601 183.622 296.91 183.636 295.989C183.65 295.069 183.657 294.375 183.657 293.908C183.657 292.667 183.526 291.522 183.264 290.472C183.247 290.42 183.238 290.382 183.238 290.359C183.238 290.3 183.276 290.259 183.352 290.236C183.392 290.231 183.726 290.176 184.352 290.075C184.979 289.973 185.307 289.922 185.336 289.922C185.371 289.922 185.394 289.968 185.406 290.062C185.435 290.423 185.502 290.788 185.607 291.155C185.91 290.916 186.309 290.618 186.804 290.263C187.416 289.89 188.008 289.703 188.579 289.703C189.675 289.703 190.424 290.021 190.826 290.656C191.124 291.122 191.272 291.877 191.272 292.92C191.272 293.101 191.268 293.378 191.259 293.751C191.25 294.124 191.245 294.404 191.245 294.591C191.245 294.981 191.251 295.564 191.262 296.339C191.274 297.114 191.282 297.698 191.282 298.088V298.088Z" fill="white"/>
<path d="M201.442 290.35C201.442 290.373 201.433 290.426 201.415 290.508C201.188 291.842 201.075 292.994 201.075 293.961C201.075 294.019 201.147 295.328 201.293 297.887L201.302 298.009C201.308 298.179 201.231 298.262 201.071 298.262C200.91 298.262 200.669 298.281 200.345 298.319C200.021 298.358 199.781 298.376 199.624 298.376C199.513 298.376 199.428 298.172 199.37 297.764C199.313 297.356 199.256 297.152 199.204 297.152C199.169 297.152 199.012 297.266 198.732 297.493C198.388 297.773 198.068 297.986 197.77 298.131C197.31 298.364 196.849 298.481 196.389 298.481C195.258 298.481 194.305 298.03 193.53 297.126C192.795 296.263 192.428 295.258 192.428 294.109C192.428 292.816 192.798 291.746 193.538 290.9C194.313 290.02 195.334 289.58 196.598 289.58C197.49 289.58 198.268 289.889 198.932 290.507C199.031 290.624 199.185 290.792 199.396 291.014C199.413 291.031 199.431 291.04 199.448 291.04C199.483 291.04 199.533 290.857 199.597 290.49C199.661 290.123 199.742 289.939 199.842 289.939C199.999 289.939 200.293 289.983 200.725 290.07C201.202 290.175 201.442 290.268 201.442 290.35V290.35ZM199.212 294.005C199.212 293.288 198.999 292.673 198.574 292.16C198.125 291.606 197.551 291.329 196.852 291.329C196.153 291.329 195.57 291.604 195.103 292.151C194.654 292.676 194.43 293.293 194.43 294.004C194.43 294.71 194.654 295.322 195.103 295.841C195.57 296.383 196.153 296.653 196.852 296.653C197.534 296.653 198.105 296.376 198.566 295.823C198.997 295.305 199.212 294.699 199.212 294.005V294.005Z" fill="white"/>
<path d="M206.959 295.57C206.959 296.438 206.612 297.135 205.918 297.66C205.289 298.138 204.522 298.377 203.619 298.377C203.269 298.377 203.071 298.368 203.024 298.35C202.925 298.304 202.876 298.161 202.876 297.922C202.876 297.794 202.86 297.602 202.828 297.345C202.796 297.089 202.78 296.899 202.78 296.777C202.78 296.701 202.832 296.651 202.937 296.628C203.012 296.611 203.12 296.611 203.261 296.628C203.441 296.646 203.528 296.655 203.523 296.655C204.625 296.655 205.175 296.317 205.175 295.64C205.175 295.32 204.933 295.025 204.449 294.757C203.663 294.325 203.211 294.061 203.094 293.962C202.61 293.548 202.368 293.005 202.368 292.335C202.368 291.461 202.698 290.779 203.356 290.289C203.951 289.852 204.703 289.634 205.612 289.634C205.694 289.634 205.753 289.672 205.791 289.748C205.829 289.823 205.902 290.059 206.01 290.456C206.118 290.852 206.172 291.091 206.172 291.173C206.172 291.237 206.116 291.277 206.005 291.295C205.632 291.347 205.256 291.396 204.877 291.443C204.428 291.565 204.204 291.81 204.204 292.177C204.204 292.439 204.44 292.705 204.912 292.973C205.611 293.363 206.054 293.646 206.241 293.821C206.72 294.275 206.959 294.859 206.959 295.57V295.57Z" fill="white"/>
<path d="M217.206 287.054C217.206 287.124 217.154 287.165 217.049 287.176C216.764 287.206 216.48 287.232 216.201 287.255C215.868 287.302 215.615 287.418 215.441 287.605C215.155 287.914 215.012 288.698 215.012 289.957C215.205 289.957 215.507 289.963 215.921 289.974C216.336 289.986 216.647 289.991 216.857 289.991C216.997 289.991 217.067 290.044 217.067 290.149C217.067 290.312 217.073 290.556 217.084 290.879C217.096 291.203 217.101 291.443 217.101 291.6C217.101 291.711 217.043 291.767 216.927 291.767C216.723 291.767 216.414 291.756 216 291.736C215.586 291.716 215.28 291.705 215.082 291.705V294.32C215.082 294.728 215.096 295.345 215.125 296.173C215.155 297 215.169 297.619 215.169 298.026C215.169 298.184 215.111 298.262 214.994 298.262H213.394C213.243 298.262 213.167 298.171 213.167 297.991V291.976C213.167 291.819 212.989 291.743 212.634 291.749C212.249 291.755 212.045 291.74 212.022 291.705C212.004 291.688 211.995 291.58 211.995 291.382C211.995 291.254 211.99 291.063 211.978 290.809C211.967 290.555 211.961 290.364 211.961 290.236C211.961 290.114 212.331 290.032 213.071 289.991C213.054 289.618 213.045 289.314 213.045 289.081C213.045 288.05 213.228 287.295 213.596 286.817C213.922 286.385 214.4 286.048 215.029 285.803C215.595 285.581 216.18 285.47 216.787 285.47C216.845 285.47 216.886 285.502 216.909 285.566C216.915 285.578 216.966 285.824 217.062 286.305C217.158 286.786 217.206 287.036 217.206 287.054V287.054Z" fill="white"/>
<path d="M225.364 293.568C225.364 293.999 225.177 294.288 224.804 294.433C224.554 294.527 222.75 294.699 219.392 294.95C219.468 295.462 219.751 295.899 220.24 296.261C220.706 296.605 221.208 296.777 221.744 296.777C222.665 296.777 223.511 296.48 224.28 295.885C224.373 295.81 224.467 295.734 224.56 295.658C224.607 295.658 224.637 295.664 224.652 295.675C224.667 295.687 224.776 295.89 224.98 296.283C225.185 296.676 225.287 296.887 225.287 296.917C225.287 296.952 225.24 297.018 225.147 297.118C224.29 298.027 223.191 298.482 221.85 298.482C220.499 298.482 219.42 298.078 218.615 297.27C217.811 296.463 217.408 295.386 217.408 294.04C217.408 292.839 217.793 291.792 218.563 290.901C219.373 289.974 220.367 289.51 221.544 289.51C222.64 289.51 223.555 289.913 224.29 290.717C225.005 291.499 225.364 292.448 225.364 293.568V293.568ZM223.283 293.034C223.283 292.55 223.092 292.122 222.71 291.749C222.328 291.376 221.898 291.189 221.42 291.189C220.884 291.189 220.407 291.405 219.991 291.836C219.574 292.268 219.365 292.752 219.365 293.288C219.365 293.41 219.47 293.472 219.68 293.472C220.543 293.472 221.574 293.384 222.775 293.209C223.114 293.162 223.283 293.104 223.283 293.034Z" fill="white"/>
<path d="M228.8 286.136L228.791 286.25C228.663 288.418 228.598 290.28 228.598 291.836C228.598 292.53 228.611 293.569 228.634 294.953C228.657 296.338 228.669 297.374 228.669 298.061C228.669 298.196 228.622 298.262 228.529 298.262H226.859C226.754 298.262 226.702 298.196 226.702 298.061C226.702 297.374 226.707 296.338 226.719 294.953C226.73 293.569 226.736 292.53 226.736 291.836C226.736 291.207 226.705 290.261 226.644 288.999C226.583 287.737 226.552 286.794 226.552 286.17C226.552 286.053 226.613 285.996 226.736 285.996C226.84 285.996 226.998 286.005 227.208 286.022C227.417 286.039 227.575 286.048 227.679 286.048C227.79 286.048 227.954 286.039 228.169 286.022C228.385 286.005 228.545 285.996 228.65 285.996C228.755 285.996 228.806 286.042 228.8 286.136Z" fill="white"/>
<path d="M232.804 287.806C232.804 288.523 232.405 288.881 231.606 288.881C230.796 288.881 230.391 288.523 230.391 287.806C230.391 287.485 230.516 287.22 230.767 287.01C231 286.812 231.28 286.713 231.607 286.713C231.934 286.713 232.214 286.814 232.45 287.019C232.686 287.224 232.804 287.485 232.804 287.806V287.806ZM232.743 290.175C232.743 290.624 232.716 291.302 232.66 292.208C232.604 293.114 232.577 293.795 232.577 294.249C232.577 294.675 232.586 295.312 232.603 296.16C232.62 297.008 232.629 297.641 232.629 298.062C232.629 298.184 232.577 298.245 232.472 298.245H230.767C230.645 298.245 230.584 298.126 230.584 297.886C230.584 297.484 230.594 296.88 230.614 296.072C230.635 295.264 230.645 294.657 230.645 294.249C230.645 293.794 230.611 293.112 230.545 292.203C230.478 291.294 230.444 290.612 230.444 290.157C230.444 290.058 230.506 290.009 230.628 290.009C230.733 290.009 230.894 290.023 231.113 290.052C231.332 290.082 231.497 290.096 231.607 290.096C231.717 290.096 231.882 290.082 232.101 290.052C232.319 290.023 232.484 290.009 232.594 290.009C232.694 290.009 232.743 290.065 232.743 290.175V290.175Z" fill="white"/>
<path d="M240.577 290.332C240.577 290.46 240.511 290.746 240.377 291.189C240.242 291.632 240.15 291.854 240.096 291.854C239.834 291.737 239.571 291.621 239.305 291.504C239.04 291.387 238.75 291.329 238.436 291.329C237.719 291.329 237.121 291.595 236.643 292.125C236.165 292.655 235.926 293.282 235.926 294.004C235.926 294.715 236.165 295.33 236.643 295.849C237.133 296.386 237.73 296.654 238.436 296.654C238.826 296.654 239.211 296.558 239.59 296.365C239.969 296.173 240.135 296.077 240.088 296.077C240.164 296.077 240.249 296.322 240.341 296.811C240.429 297.254 240.472 297.56 240.472 297.729C240.472 297.91 240.132 298.088 239.449 298.263C238.878 298.409 238.455 298.482 238.182 298.482C236.981 298.482 235.966 298.033 235.139 297.135C234.329 296.261 233.924 295.217 233.924 294.005C233.924 292.769 234.32 291.72 235.113 290.857C235.929 289.971 236.946 289.528 238.164 289.528C238.98 289.528 239.725 289.735 240.402 290.149C240.519 290.219 240.577 290.28 240.577 290.332V290.332Z" fill="white"/>
<path d="M249.076 293.568C249.076 293.999 248.889 294.288 248.516 294.433C248.265 294.527 246.461 294.699 243.104 294.95C243.179 295.462 243.463 295.899 243.952 296.261C244.418 296.605 244.919 296.777 245.456 296.777C246.377 296.777 247.222 296.48 247.992 295.885C248.085 295.81 248.178 295.734 248.272 295.658C248.318 295.658 248.349 295.664 248.364 295.675C248.379 295.687 248.487 295.89 248.692 296.283C248.897 296.676 248.998 296.887 248.998 296.917C248.998 296.952 248.952 297.018 248.858 297.118C248.001 298.027 246.903 298.482 245.562 298.482C244.21 298.482 243.131 298.078 242.327 297.27C241.522 296.463 241.12 295.386 241.12 294.04C241.12 292.839 241.505 291.792 242.274 290.901C243.085 289.974 244.078 289.51 245.256 289.51C246.352 289.51 247.267 289.913 248.001 290.717C248.717 291.499 249.076 292.448 249.076 293.568V293.568ZM246.995 293.034C246.995 292.55 246.803 292.122 246.422 291.749C246.04 291.376 245.609 291.189 245.132 291.189C244.595 291.189 244.119 291.405 243.702 291.836C243.286 292.268 243.077 292.752 243.077 293.288C243.077 293.41 243.182 293.472 243.392 293.472C244.254 293.472 245.286 293.384 246.487 293.209C246.825 293.162 246.995 293.104 246.995 293.034Z" fill="white"/>
<path d="M254.391 295.57C254.391 296.438 254.045 297.135 253.351 297.66C252.721 298.138 251.955 298.377 251.051 298.377C250.701 298.377 250.504 298.368 250.456 298.35C250.357 298.304 250.308 298.161 250.308 297.922C250.308 297.794 250.292 297.602 250.26 297.345C250.228 297.089 250.212 296.899 250.212 296.777C250.212 296.701 250.264 296.651 250.369 296.628C250.445 296.611 250.553 296.611 250.693 296.628C250.873 296.646 250.961 296.655 250.955 296.655C252.057 296.655 252.608 296.317 252.608 295.64C252.608 295.32 252.366 295.025 251.882 294.757C251.095 294.325 250.643 294.061 250.527 293.962C250.043 293.548 249.801 293.005 249.801 292.335C249.801 291.461 250.13 290.779 250.789 290.289C251.384 289.852 252.135 289.634 253.044 289.634C253.126 289.634 253.186 289.672 253.223 289.748C253.261 289.823 253.334 290.059 253.442 290.456C253.55 290.852 253.604 291.091 253.604 291.173C253.604 291.237 253.548 291.277 253.438 291.295C253.065 291.347 252.689 291.396 252.31 291.443C251.861 291.565 251.636 291.81 251.636 292.177C251.636 292.439 251.872 292.705 252.344 292.973C253.044 293.363 253.486 293.646 253.673 293.821C254.152 294.275 254.391 294.859 254.391 295.57V295.57Z" fill="white"/>
</svg>
