<svg width="378" height="322" viewBox="0 0 378 322" fill="none" xmlns="http://www.w3.org/2000/svg">
<g opacity="0.75">
<path d="M10.0007 168.999C13.6287 271.999 151.664 320.998 323.164 297.999C450.603 280.909 421.619 192.5 428.013 178.161C428.013 178.161 425.515 162.343 421.619 155.03C414.684 142.012 412.54 126.984 415.243 112.484C416.351 106.538 416.874 100.395 416.753 94.1189C415.78 43.7936 396.501 -5.99899 323.165 5.47472C285.387 6.80529 253.846 31.1278 241.507 64.5176C234.731 82.8545 219.632 96.9482 200.645 101.602C138.802 116.761 8.64207 130.426 10.0007 168.999Z" fill="url(#paint0_linear_766_1721)"/>
<rect x="3" y="250" width="414" height="72" fill="url(#paint1_linear_766_1721)"/>
<path d="M355.775 213.662V207.43C355.775 206.343 354.885 205.453 353.798 205.453H328.787C327.699 205.453 326.81 206.343 326.81 207.43V213.662H355.775Z" fill="#9CE8FF"/>
<path d="M322.585 237.651V247.076C322.585 248.164 323.475 249.054 324.563 249.054H328.125C329.212 249.054 330.102 248.164 330.102 247.076V237.651H322.585Z" fill="#FFAF68"/>
<path d="M352.481 247.076C352.481 248.164 353.371 249.054 354.459 249.054H358.021C359.108 249.054 359.998 248.164 359.998 247.076V237.651H352.482V247.076H352.481Z" fill="#FFAF68"/>
<path d="M359.996 229.212H322.584V238.866H359.996V229.212Z" fill="#CB7C52"/>
<path d="M357.987 212.45H324.597C323.49 212.45 322.585 213.355 322.585 214.462V230.475H359.999V214.462C359.999 213.355 359.094 212.45 357.987 212.45Z" fill="#AB5436"/>
<path d="M345.114 225.678H337.47C335.88 225.678 334.591 224.389 334.591 222.799C334.591 221.208 335.88 219.919 337.47 219.919H345.114C346.704 219.919 347.993 221.208 347.993 222.799C347.993 224.389 346.704 225.678 345.114 225.678Z" fill="#CB7C52"/>
<path d="M187.557 241.279V160.65C187.557 159.105 186.306 157.854 184.761 157.854C183.217 157.854 181.966 159.105 181.966 160.65V241.279H187.557Z" fill="#08375E"/>
<path d="M197.859 240.036H174.004C172.948 240.036 172.084 240.9 172.084 241.955V247.161C172.084 248.217 172.948 249.081 174.004 249.081H197.859V240.036Z" fill="#63C3EA"/>
<g opacity="0.1">
<path opacity="0.1" d="M180.486 247.162V241.956C180.486 240.9 181.349 240.036 182.405 240.036H174.004C172.948 240.036 172.084 240.9 172.084 241.956V247.162C172.084 248.217 172.948 249.081 174.004 249.081H182.405C181.349 249.081 180.486 248.217 180.486 247.162Z" fill="#231F20"/>
</g>
<path d="M200.365 163.883C200.365 164.939 199.501 165.803 198.445 165.803H171.078C170.022 165.803 169.158 164.939 169.158 163.883V129.03C169.158 127.973 170.022 127.11 171.078 127.11H198.445C199.5 127.11 200.364 127.973 200.364 129.03L200.365 163.883Z" fill="#FF9F3D"/>
<path opacity="0.1" d="M177.414 163.883V129.03C177.414 127.973 178.278 127.11 179.334 127.11H171.078C170.022 127.11 169.158 127.973 169.158 129.03V163.883C169.158 164.939 170.022 165.803 171.078 165.803H179.334C178.278 165.803 177.414 164.939 177.414 163.883Z" fill="#231F20"/>
<path d="M305.199 178.19H212.888C210.776 178.19 209.048 179.918 209.048 182.03V220.877H309.039V182.03C309.039 179.918 307.312 178.19 305.199 178.19Z" fill="#FFBB4A"/>
<path opacity="0.1" d="M219.59 178.19H212.888C210.776 178.19 209.048 179.918 209.048 182.03V220.877H215.75V182.03C215.75 179.918 217.478 178.19 219.59 178.19Z" fill="#231F20"/>
<path d="M261.839 178.192H256.248V220.878H261.839V178.192Z" fill="#FF9F3D"/>
<path d="M245.373 218.957C245.373 220.013 244.509 220.877 243.453 220.877H226.201C225.145 220.877 224.281 220.013 224.281 218.957V201.691C224.281 200.635 225.145 199.771 226.201 199.771H243.453C244.509 199.771 245.373 200.635 245.373 201.691V218.957Z" fill="#3EAF91"/>
<path d="M295.368 218.957C295.368 220.013 294.504 220.877 293.448 220.877H276.196C275.14 220.877 274.276 220.013 274.276 218.957V201.691C274.276 200.635 275.14 199.771 276.196 199.771H293.448C294.504 199.771 295.368 200.635 295.368 201.691V218.957Z" fill="#3EAF91"/>
<path d="M309.038 220.458H209.048V240.213H309.038V220.458Z" fill="#FF9F3D"/>
<path d="M208.657 205.022H199.283C197.135 205.022 195.377 206.781 195.377 208.93V247.098C195.377 248.173 196.255 249.053 197.33 249.053H210.61C211.684 249.053 212.563 248.173 212.563 247.098V208.93C212.563 206.781 210.805 205.022 208.657 205.022Z" fill="#FCC96C"/>
<path opacity="0.1" d="M203.618 247.099V208.931C203.618 206.781 205.376 205.023 207.524 205.023H199.283C197.135 205.023 195.377 206.782 195.377 208.931V247.099C195.377 248.174 196.255 249.054 197.33 249.054H205.571C204.497 249.054 203.618 248.174 203.618 247.099Z" fill="#231F20"/>
<path d="M318.803 205.023H309.429C307.281 205.023 305.523 206.782 305.523 208.931V247.099C305.523 248.174 306.402 249.054 307.477 249.054H320.757C321.831 249.054 322.71 248.174 322.71 247.099V208.931C322.71 206.782 320.952 205.023 318.803 205.023Z" fill="#FCC96C"/>
<path opacity="0.1" d="M311.809 247.099V208.931C311.809 206.781 313.566 205.023 315.714 205.023H309.429C307.281 205.023 305.523 206.782 305.523 208.931V247.099C305.523 248.174 306.402 249.054 307.477 249.054H313.761C312.687 249.054 311.809 248.174 311.809 247.099Z" fill="#231F20"/>
<path d="M302.193 106.849H215.894C214.774 106.849 213.858 107.765 213.858 108.886V156.544C213.858 157.665 214.774 158.581 215.894 158.581H302.193C303.312 158.581 304.228 157.665 304.228 156.544V108.886C304.228 107.765 303.312 106.849 302.193 106.849Z" fill="#AB5436"/>
<path d="M223.118 150.433C222.503 150.433 222 149.93 222 149.315V116.114C222 115.499 222.503 114.996 223.118 114.996H294.969C295.584 114.996 296.087 115.499 296.087 116.114V149.315C296.087 149.93 295.584 150.433 294.969 150.433H223.118Z" fill="#B1E8FF"/>
<path d="M323.698 178.149C323.25 178.149 322.854 177.854 322.723 177.422C321.121 172.22 320.021 171.107 314.878 169.487C314.451 169.352 314.16 168.953 314.16 168.499C314.16 168.047 314.451 167.646 314.878 167.512C320.021 165.892 321.121 164.78 322.723 159.577C322.855 159.145 323.25 158.85 323.698 158.85C324.147 158.85 324.541 159.145 324.675 159.577C326.277 164.78 327.374 165.892 332.517 167.512C332.945 167.646 333.236 168.047 333.236 168.499C333.236 168.953 332.945 169.352 332.517 169.487C327.374 171.107 326.277 172.22 324.675 177.422C324.541 177.854 324.147 178.149 323.698 178.149Z" fill="#FFE03D"/>
<path d="M337.772 137.062C337.276 137.062 336.838 136.737 336.692 136.257C334.919 130.496 333.701 129.264 328.005 127.469C327.532 127.32 327.21 126.878 327.21 126.376C327.21 125.875 327.532 125.431 328.005 125.282C333.7 123.489 334.919 122.257 336.692 116.494C336.838 116.016 337.276 115.69 337.772 115.69C338.269 115.69 338.706 116.016 338.854 116.494C340.628 122.257 341.845 123.489 347.54 125.282C348.014 125.431 348.335 125.875 348.335 126.376C348.335 126.878 348.014 127.32 347.54 127.469C341.845 129.264 340.628 130.496 338.854 136.257C338.706 136.737 338.269 137.062 337.772 137.062Z" fill="#FFE03D"/>
<path d="M195.893 113.97C195.522 113.97 195.195 113.726 195.085 113.368C193.76 109.063 192.85 108.142 188.594 106.802C188.241 106.691 188 106.36 188 105.984C188 105.611 188.241 105.279 188.594 105.168C192.85 103.827 193.76 102.908 195.085 98.601C195.195 98.2443 195.522 98.0005 195.893 98.0005C196.264 98.0005 196.59 98.2443 196.701 98.601C198.027 102.908 198.935 103.827 203.191 105.168C203.545 105.279 203.785 105.611 203.785 105.984C203.785 106.36 203.545 106.691 203.191 106.802C198.935 108.143 198.027 109.063 196.701 113.368C196.59 113.726 196.264 113.97 195.893 113.97Z" fill="#FFE03D"/>
<path d="M281.557 131.956L269.475 150.434H294.968L282.885 131.956C282.52 131.398 281.921 131.398 281.557 131.956Z" fill="#86D5B5"/>
<path d="M258.234 122.895L240.226 150.433H277.57L259.562 122.895C259.197 122.336 258.599 122.336 258.234 122.895Z" fill="#3EAF91"/>
<path d="M235.47 131.544L223.117 150.433H249.15L236.798 131.544C236.433 130.985 235.835 130.985 235.47 131.544Z" fill="#86D5B5"/>
<path opacity="0.1" d="M223.118 114.996C222.503 114.996 222 115.499 222 116.114V149.315C222 149.93 222.503 150.433 223.118 150.433H228.484V114.996H223.118Z" fill="#231F20"/>
<path d="M355.775 203.498C355.775 204.586 354.885 205.477 353.798 205.477H328.787C327.699 205.477 326.81 204.586 326.81 203.498V199C326.81 197.912 327.699 197.022 328.787 197.022H353.798C354.885 197.022 355.775 197.912 355.775 199V203.498Z" fill="#63C3EA"/>
<path d="M70.4027 121.835V126.824H57.9299L50.4462 130.985V126.824H45.457V106.868H50.4462L70.4027 121.835Z" fill="#D8E5EF"/>
<path d="M85.3702 92V121.835H80.3811V125.996L73.2957 121.835H50.4463V92H85.3702Z" fill="#EFF4F9"/>
<path d="M67.9079 116.946C73.4188 116.946 77.8862 112.478 77.8862 106.968C77.8862 101.457 73.4188 96.9893 67.9079 96.9893C62.3971 96.9893 57.9297 101.457 57.9297 106.968C57.9297 112.478 62.3971 116.946 67.9079 116.946Z" fill="#FFE03D"/>
<path d="M73.3129 109.517C72.3922 111.692 70.2711 113.099 67.9082 113.099C65.5953 113.099 63.4913 111.734 62.5488 109.621L64.6848 108.668C65.2515 109.939 66.5167 110.76 67.9082 110.76C69.3294 110.76 70.6055 109.914 71.159 108.605L73.3129 109.517Z" fill="#EFF4F9"/>
<path d="M70.2666 103.715H72.6053V106.053H70.2666V103.715Z" fill="#EFF4F9"/>
<path d="M63.2109 103.715H65.5496V106.053H63.2109V103.715Z" fill="#EFF4F9"/>
<path d="M11.0827 259.278C7.63337 259.278 4.71174 256.536 4.43938 252.926C4.15358 249.135 6.899 245.822 10.572 245.527L30.6483 243.913V222.763C30.6483 218.961 33.635 215.877 37.3191 215.877C41.0031 215.877 43.9899 218.961 43.9899 222.763V250.283C43.9899 253.879 41.3098 256.869 37.8369 257.148L11.608 259.257C11.4321 259.271 11.2565 259.278 11.0827 259.278Z" fill="#5F6E9B"/>
<path d="M53.5399 284.689C49.8559 284.689 46.8691 281.606 46.8691 277.803V222.763C46.8691 218.961 49.8559 215.877 53.5399 215.877C57.224 215.877 60.2107 218.961 60.2107 222.763V277.803C60.2107 281.606 57.224 284.689 53.5399 284.689Z" fill="#5F6E9B"/>
<path d="M45.4292 163.982C51.7921 163.982 56.9503 158.657 56.9503 152.089C56.9503 145.521 51.7921 140.196 45.4292 140.196C39.0664 140.196 33.9082 145.521 33.9082 152.089C33.9082 158.657 39.0664 163.982 45.4292 163.982Z" fill="#FFB69E"/>
<path d="M51.6774 169.002L51.5296 167.772H39.2757L39.1356 169.098C38.728 172.955 41.6541 176.323 45.4122 176.323C49.208 176.323 52.1457 172.89 51.6774 169.002Z" fill="#FFB69E"/>
<path d="M62.5938 193.31V223.469C62.5938 226.638 65.0826 229.207 68.1527 229.207C71.2227 229.207 73.7113 226.638 73.7113 223.469V193.307L67.8421 191.979L62.5938 193.31Z" fill="#FFB69E"/>
<path d="M22.9112 162.901L17.8889 160.931L10.8021 140.21C9.78015 137.222 6.60438 135.655 3.70964 136.71C0.814892 137.765 -0.703408 141.043 0.318548 144.031L8.26364 167.261C8.80807 168.853 10.0032 170.116 11.5317 170.715L19.0208 173.651L23.5987 169.068L22.9112 162.901Z" fill="#FFB69E"/>
<path d="M60.3512 167.772H51.5287C51.6368 171.161 48.585 174.036 45.3984 174.036C41.9835 174.036 39.4519 171.172 39.2748 167.772H35.336L22.9112 162.9L19.0205 173.651L30.6431 178.208V222.763H60.2081L60.1565 179.249H60.3515C61.5198 179.249 62.5886 180.246 62.5937 181.312V193.31C62.6104 193.31 62.6259 193.308 62.6427 193.308H73.7113V181.284C73.6751 173.833 67.682 167.772 60.3512 167.772Z" fill="#0BBBEF"/>
<path d="M93.8897 284.512C90.4502 284.512 87.6621 281.634 87.6621 278.084V226.699C87.6621 223.149 90.4502 220.271 93.8897 220.271C97.3292 220.271 100.117 223.149 100.117 226.699V278.084C100.117 281.634 97.3292 284.512 93.8897 284.512Z" fill="#FFB69E"/>
<path d="M128.71 262.78L107.875 258.707C104.934 258.132 102.806 255.48 102.806 252.391V226.699C102.806 223.149 105.594 220.271 109.033 220.271C112.473 220.271 115.261 223.149 115.261 226.699V247.066L131.027 250.147C134.406 250.808 136.627 254.171 135.987 257.66C135.348 261.143 132.093 263.442 128.71 262.78Z" fill="#FFB69E"/>
<path d="M89.4543 162.289L75.8025 134.826C74.4938 132.193 71.3655 131.154 68.8157 132.505C66.2656 133.856 65.2592 137.085 66.5675 139.717L80.4279 167.599L86.8099 167.715L89.4543 162.289Z" fill="#FFB69E"/>
<path d="M106.969 175.754L106.896 175.386L95.9518 175.36L95.8595 175.887C95.2317 179.47 97.8992 182.766 101.427 182.766C105.008 182.766 107.688 179.375 106.969 175.754Z" fill="#FFB69E"/>
<path d="M151.755 147.149C149.892 144.9 146.616 144.635 144.437 146.558L122.454 165.957L124.379 171.378L129.893 173.148C137.042 166.983 145.32 159.826 151.182 154.702C153.361 152.779 153.617 149.397 151.755 147.149Z" fill="#FFB69E"/>
<path d="M115.102 185.878C115.102 185.878 121.768 180.154 129.893 173.148L122.454 165.958L111.8 175.36H106.894C106.895 175.369 106.896 175.378 106.897 175.387C107.029 178.446 104.279 181.051 101.409 181.051C98.3323 181.051 96.0542 178.456 95.921 175.387C95.9198 175.358 95.9231 175.329 95.9222 175.301L89.4542 162.289L80.4277 167.599L87.4494 181.725L80.7909 235.998C80.4848 237.821 81.8517 239.486 83.6316 239.486H119.29C121.079 239.486 122.437 237.821 122.131 235.998L115.102 185.878Z" fill="#EC607E"/>
<path d="M109.052 168.575C113.251 164.24 113.251 157.211 109.052 152.876C104.852 148.541 98.0425 148.541 93.8427 152.876C89.6429 157.211 89.6429 164.24 93.8427 168.575C98.0425 172.911 104.852 172.911 109.052 168.575Z" fill="#FFB69E"/>
</g>
<defs>
<linearGradient id="paint0_linear_766_1721" x1="627.332" y1="364.619" x2="189.099" y2="103.003" gradientUnits="userSpaceOnUse">
<stop stop-color="#0BBBEF"/>
<stop offset="1" stop-color="white"/>
</linearGradient>
<linearGradient id="paint1_linear_766_1721" x1="210" y1="250" x2="210" y2="280" gradientUnits="userSpaceOnUse">
<stop stop-color="white"/>
<stop offset="0.211288" stop-color="white" stop-opacity="0.474319"/>
<stop offset="1" stop-color="#C4C4C4" stop-opacity="0"/>
</linearGradient>
</defs>
</svg>
