<svg width="300" height="274" viewBox="0 0 300 274" fill="none" xmlns="http://www.w3.org/2000/svg">
<path d="M290.243 20.8513C246.574 -38.8727 183.223 52.1082 138.298 72.3939C119.376 80.9381 103.335 44.8226 68.5207 73.3859C61.7379 78.9506 55.9307 85.5816 50.11 92.1488C13.5082 133.446 -10.5164 152.841 4.58264 171.755C25.6289 198.119 65.5694 178.351 93.0674 189.442C136.423 206.929 140.536 288.79 201.833 270.53C263.886 252.045 221.619 188.313 238.103 147.538C242.408 136.888 252.523 129.855 261.294 122.437C289.76 98.3609 314.291 53.7406 290.243 20.8513Z" fill="url(#paint0_linear_850_384)"/>
<path d="M259.787 188.588L229.654 81.8248C228.585 78.0379 225.13 75.4229 221.196 75.4229H85.5709L118.409 191.771C119.122 194.296 121.425 196.039 124.048 196.039H254.148C258.033 196.039 260.842 192.327 259.787 188.588Z" fill="#B6C4FF"/>
<path d="M206.469 194.071C206.469 194.733 206.496 195.388 206.537 196.039H254.148C258.033 196.039 260.842 192.327 259.787 188.588L253.579 166.592C248.99 163.991 243.691 162.5 238.041 162.5C220.604 162.5 206.469 176.635 206.469 194.071Z" fill="#9EAFFD"/>
<path d="M233.313 94.7681C231.93 91.5923 228.778 89.4829 225.25 89.4829L89.5413 89.4888L85.5686 75.4204H221.196C225.127 75.4204 228.584 78.0395 229.656 81.8247L233.313 94.7681Z" fill="#9EAFFD"/>
<path d="M217.638 75.4248C213.707 75.4248 210.25 78.0381 209.177 81.8232L173.761 207.311C173.048 209.835 170.745 211.579 168.122 211.579H40.9389C37.0541 211.579 34.2446 207.867 35.2998 204.128L69.818 81.8232C70.8844 78.0381 74.3414 75.4248 78.2789 75.4248H217.638Z" fill="white"/>
<path d="M69.8179 81.8232L60.2836 115.607C61.6119 115.83 62.9742 115.952 64.3664 115.952C77.8869 115.952 88.8474 104.991 88.8474 91.4707C88.8474 85.3301 86.5816 79.7221 82.8468 75.4248H78.2801C74.3414 75.4248 70.8843 78.0381 69.8179 81.8232Z" fill="#D1DDFF"/>
<path d="M194.283 134.594L192.631 140.454H83.635C82.012 140.454 80.7053 139.141 80.7053 137.524C80.7053 135.901 82.012 134.594 83.635 134.594H194.283Z" fill="#FF7EB7"/>
<path d="M78.2789 75.4258C74.3414 75.4258 70.8844 78.0391 69.818 81.8242L65.6807 96.4832H205.04L209.177 81.8242C210.25 78.0391 213.707 75.4258 217.638 75.4258H78.2789Z" fill="#FF7EB7"/>
<path d="M88.8457 91.4727C88.8457 93.1895 88.6699 94.8652 88.3301 96.4824H65.6777L69.8203 81.8223C70.8867 78.0371 74.3438 75.4238 78.2813 75.4238H82.8457C86.5781 79.7246 88.8457 85.332 88.8457 91.4727Z" fill="#FF5BA7"/>
<path d="M111.789 59.3872C102.946 59.3872 95.751 66.5813 95.751 75.4249C95.751 84.2685 102.946 91.4632 111.789 91.4632C113.406 91.4632 114.718 90.1519 114.718 88.5335C114.718 86.9151 113.406 85.6038 111.789 85.6038C106.176 85.6038 101.61 81.0376 101.61 75.4249C101.61 69.8128 106.176 65.2466 111.789 65.2466C117.401 65.2466 121.968 69.8128 121.968 75.4249H127.827C127.827 66.5813 120.632 59.3872 111.789 59.3872Z" fill="#6582FD"/>
<path d="M169.532 59.3872C160.689 59.3872 153.494 66.5813 153.494 75.4249C153.494 84.2685 160.689 91.4632 169.532 91.4632C171.15 91.4632 172.462 90.1519 172.462 88.5335C172.462 86.9151 171.15 85.6038 169.532 85.6038C163.92 85.6038 159.353 81.0376 159.353 75.4249C159.353 69.8128 163.92 65.2466 169.532 65.2466C175.145 65.2466 179.711 69.8128 179.711 75.4249H185.57C185.57 66.5813 178.375 59.3872 169.532 59.3872Z" fill="#6582FD"/>
<path d="M238.041 211.58C255.477 211.58 269.612 197.445 269.612 180.008C269.612 162.572 255.477 148.437 238.041 148.437C220.604 148.437 206.469 162.572 206.469 180.008C206.469 197.445 220.604 211.58 238.041 211.58Z" fill="#6582FD"/>
<path d="M238.041 204.489C251.561 204.489 262.522 193.529 262.522 180.008C262.522 166.488 251.561 155.527 238.041 155.527C224.52 155.527 213.56 166.488 213.56 180.008C213.56 193.529 224.52 204.489 238.041 204.489Z" fill="white"/>
<path d="M229.55 192.631C228.865 192.631 228.177 192.392 227.621 191.905C226.404 190.839 226.281 188.988 227.347 187.771L235.836 178.078C236.902 176.861 238.753 176.738 239.97 177.804C241.187 178.87 241.31 180.721 240.244 181.938L231.756 191.631C231.177 192.293 230.365 192.631 229.55 192.631Z" fill="#6582FD"/>
<path d="M238.04 182.938C237.309 182.938 236.576 182.666 236.007 182.119L231.033 177.324C229.869 176.201 229.834 174.347 230.957 173.182C232.079 172.016 233.934 171.982 235.099 173.105L240.073 177.899C241.238 179.022 241.273 180.877 240.15 182.042C239.575 182.638 238.808 182.938 238.04 182.938Z" fill="#FF5BA7"/>
<path d="M167.426 154.59C169.044 154.59 170.355 153.279 170.355 151.661C170.355 150.043 169.044 148.731 167.426 148.731C165.808 148.731 164.496 150.043 164.496 151.661C164.496 153.279 165.808 154.59 167.426 154.59Z" fill="#6582FD"/>
<path d="M80.6438 167.704C82.2618 167.704 83.5735 166.392 83.5735 164.774C83.5735 163.156 82.2618 161.844 80.6438 161.844C79.0258 161.844 77.7141 163.156 77.7141 164.774C77.7141 166.392 79.0258 167.704 80.6438 167.704Z" fill="#6582FD"/>
<path d="M97.1678 167.704C98.7859 167.704 100.098 166.392 100.098 164.774C100.098 163.156 98.7859 161.844 97.1678 161.844C95.5498 161.844 94.2382 163.156 94.2382 164.774C94.2382 166.392 95.5498 167.704 97.1678 167.704Z" fill="#6582FD"/>
<path d="M113.692 167.704C115.31 167.704 116.622 166.392 116.622 164.774C116.622 163.156 115.31 161.844 113.692 161.844C112.074 161.844 110.763 163.156 110.763 164.774C110.763 166.392 112.074 167.704 113.692 167.704Z" fill="#6582FD"/>
<path d="M130.216 167.704C131.834 167.704 133.146 166.392 133.146 164.774C133.146 163.156 131.834 161.844 130.216 161.844C128.598 161.844 127.287 163.156 127.287 164.774C127.287 166.392 128.598 167.704 130.216 167.704Z" fill="#6582FD"/>
<path d="M146.741 167.704C148.359 167.704 149.671 166.392 149.671 164.774C149.671 163.156 148.359 161.844 146.741 161.844C145.123 161.844 143.811 163.156 143.811 164.774C143.811 166.392 145.123 167.704 146.741 167.704Z" fill="#6582FD"/>
<path d="M163.265 167.704C164.883 167.704 166.195 166.392 166.195 164.774C166.195 163.156 164.883 161.844 163.265 161.844C161.647 161.844 160.335 163.156 160.335 164.774C160.335 166.392 161.647 167.704 163.265 167.704Z" fill="#6582FD"/>
<path d="M76.483 180.817C78.1011 180.817 79.4127 179.505 79.4127 177.887C79.4127 176.269 78.1011 174.958 76.483 174.958C74.865 174.958 73.5533 176.269 73.5533 177.887C73.5533 179.505 74.865 180.817 76.483 180.817Z" fill="#6582FD"/>
<path d="M93.0071 180.817C94.6251 180.817 95.9368 179.505 95.9368 177.887C95.9368 176.269 94.6251 174.958 93.0071 174.958C91.3891 174.958 90.0774 176.269 90.0774 177.887C90.0774 179.505 91.3891 180.817 93.0071 180.817Z" fill="#6582FD"/>
<path d="M109.532 180.817C111.15 180.817 112.461 179.505 112.461 177.887C112.461 176.269 111.15 174.958 109.532 174.958C107.914 174.958 106.602 176.269 106.602 177.887C106.602 179.505 107.914 180.817 109.532 180.817Z" fill="#6582FD"/>
<path d="M126.056 180.817C127.674 180.817 128.985 179.505 128.985 177.887C128.985 176.269 127.674 174.958 126.056 174.958C124.438 174.958 123.126 176.269 123.126 177.887C123.126 179.505 124.438 180.817 126.056 180.817Z" fill="#6582FD"/>
<path d="M142.58 180.817C144.198 180.817 145.51 179.505 145.51 177.887C145.51 176.269 144.198 174.958 142.58 174.958C140.962 174.958 139.651 176.269 139.651 177.887C139.651 179.505 140.962 180.817 142.58 180.817Z" fill="#6582FD"/>
<path d="M159.104 180.817C160.722 180.817 162.034 179.505 162.034 177.887C162.034 176.269 160.722 174.958 159.104 174.958C157.486 174.958 156.175 176.269 156.175 177.887C156.175 179.505 157.486 180.817 159.104 180.817Z" fill="#6582FD"/>
<path d="M72.3223 193.931C73.9403 193.931 75.2519 192.619 75.2519 191.001C75.2519 189.383 73.9403 188.071 72.3223 188.071C70.7042 188.071 69.3926 189.383 69.3926 191.001C69.3926 192.619 70.7042 193.931 72.3223 193.931Z" fill="#6582FD"/>
<path d="M88.8469 193.931C90.4649 193.931 91.7766 192.619 91.7766 191.001C91.7766 189.383 90.4649 188.071 88.8469 188.071C87.2289 188.071 85.9172 189.383 85.9172 191.001C85.9172 192.619 87.2289 193.931 88.8469 193.931Z" fill="#6582FD"/>
<path d="M105.371 193.931C106.989 193.931 108.301 192.619 108.301 191.001C108.301 189.383 106.989 188.071 105.371 188.071C103.753 188.071 102.441 189.383 102.441 191.001C102.441 192.619 103.753 193.931 105.371 193.931Z" fill="#6582FD"/>
<path d="M121.896 193.931C123.514 193.931 124.825 192.619 124.825 191.001C124.825 189.383 123.514 188.071 121.896 188.071C120.277 188.071 118.966 189.383 118.966 191.001C118.966 192.619 120.277 193.931 121.896 193.931Z" fill="#6582FD"/>
<path d="M109.347 127.902H84.9105C83.2927 127.902 81.9808 126.59 81.9808 124.972V120.072C81.9808 118.454 83.2927 117.143 84.9105 117.143H109.347C110.965 117.143 112.277 118.454 112.277 120.072V124.972C112.277 126.59 110.965 127.902 109.347 127.902Z" fill="#6582FD"/>
<path d="M152.317 127.902H149.193C145.379 127.902 142.277 124.799 142.277 120.986V111.343C142.277 107.53 145.379 104.428 149.193 104.428H152.317C156.13 104.428 159.233 107.53 159.233 111.343V120.986C159.233 124.799 156.13 127.902 152.317 127.902ZM149.193 110.287C148.61 110.287 148.136 110.761 148.136 111.343V120.986C148.136 121.568 148.61 122.042 149.193 122.042H152.317C152.899 122.042 153.373 121.568 153.373 120.986V111.343C153.373 110.761 152.899 110.287 152.317 110.287H149.193Z" fill="#FF5BA7"/>
<path d="M169.201 127.902C167.583 127.902 166.271 126.59 166.271 124.972V110.287H166.011C164.393 110.287 163.082 108.975 163.082 107.357C163.082 105.74 164.393 104.428 166.011 104.428H169.201C170.819 104.428 172.131 105.74 172.131 107.357V124.972C172.131 126.59 170.819 127.902 169.201 127.902Z" fill="#FF5BA7"/>
<path d="M64.3658 101.89C77.8863 101.89 88.8469 90.9293 88.8469 77.4088C88.8469 63.8883 77.8863 52.9277 64.3658 52.9277C50.8453 52.9277 39.8848 63.8883 39.8848 77.4088C39.8848 90.9293 50.8453 101.89 64.3658 101.89Z" fill="#0BBBEF"/>
<path d="M61.5152 86.7593C60.7658 86.7593 60.0152 86.4733 59.4439 85.9015L52.3037 78.7618C51.1594 77.6175 51.1594 75.7624 52.3037 74.6187C53.4469 73.4749 55.3031 73.4749 56.4463 74.6187L61.5146 79.687L72.2847 68.9169C73.4279 67.7731 75.2842 67.7731 76.4273 68.9169C77.5717 70.0612 77.5717 71.9163 76.4273 73.0601L63.5859 85.9015C63.0146 86.4728 62.2646 86.7593 61.5152 86.7593Z" fill="white"/>
<path d="M33.4313 130.835C28.9078 130.835 25.2281 127.155 25.2281 122.632C25.2281 118.108 28.9078 114.429 33.4313 114.429C37.9547 114.429 41.6344 118.108 41.6344 122.632C41.6344 127.155 37.9541 130.835 33.4313 130.835ZM33.4313 120.288C32.1387 120.288 31.0875 121.339 31.0875 122.632C31.0875 123.924 32.1387 124.976 33.4313 124.976C34.7239 124.976 35.775 123.924 35.775 122.632C35.775 121.339 34.7233 120.288 33.4313 120.288Z" fill="#0BBBEF"/>
<path d="M248.915 75.1933C244.392 75.1933 240.712 71.5136 240.712 66.9901C240.712 62.4673 244.392 58.7876 248.915 58.7876C253.438 58.7876 257.118 62.4673 257.118 66.9901C257.118 71.513 253.438 75.1933 248.915 75.1933ZM248.915 64.647C247.622 64.647 246.571 65.6981 246.571 66.9901C246.571 68.2827 247.622 69.3339 248.915 69.3339C250.208 69.3339 251.259 68.2827 251.259 66.9901C251.259 65.6981 250.208 64.647 248.915 64.647Z" fill="#FF5BA7"/>
<path d="M202.01 230.63C200.392 230.63 199.08 229.319 199.08 227.7C199.08 225.654 197.415 223.99 195.369 223.99C193.751 223.99 192.439 222.678 192.439 221.06C192.439 219.442 193.751 218.13 195.369 218.13C197.415 218.13 199.08 216.466 199.08 214.419C199.08 212.801 200.392 211.49 202.01 211.49C203.627 211.49 204.939 212.801 204.939 214.419C204.939 216.466 206.604 218.13 208.65 218.13C210.268 218.13 211.58 219.442 211.58 221.06C211.58 222.678 210.268 223.99 208.65 223.99C206.604 223.99 204.939 225.654 204.939 227.7C204.939 229.319 203.627 230.63 202.01 230.63Z" fill="#0BBBEF"/>
<path d="M217.638 59.6051C216.021 59.6051 214.709 58.2938 214.709 56.6754C214.709 54.6293 213.044 52.9647 210.998 52.9647C209.38 52.9647 208.068 51.6533 208.068 50.035C208.068 48.4166 209.38 47.1053 210.998 47.1053C213.044 47.1053 214.709 45.4406 214.709 43.3945C214.709 41.7762 216.021 40.4648 217.638 40.4648C219.256 40.4648 220.568 41.7762 220.568 43.3945C220.568 45.4406 222.233 47.1053 224.279 47.1053C225.897 47.1053 227.208 48.4166 227.208 50.035C227.208 51.6533 225.897 52.9647 224.279 52.9647C222.233 52.9647 220.568 54.6293 220.568 56.6754C220.568 58.2938 219.256 59.6051 217.638 59.6051Z" fill="#6582FD"/>
<path d="M76.6196 241.924C75.0018 241.924 73.6899 240.613 73.6899 238.994C73.6899 236.948 72.0252 235.284 69.9791 235.284C68.3614 235.284 67.0494 233.972 67.0494 232.354C67.0494 230.736 68.3614 229.424 69.9791 229.424C72.0252 229.424 73.6899 227.759 73.6899 225.713C73.6899 224.095 75.0018 222.783 76.6196 222.783C78.2373 222.783 79.5493 224.095 79.5493 225.713C79.5493 227.759 81.2139 229.424 83.26 229.424C84.8778 229.424 86.1897 230.736 86.1897 232.354C86.1897 233.972 84.8778 235.284 83.26 235.284C81.2139 235.284 79.5493 236.948 79.5493 238.994C79.5493 240.613 78.2373 241.924 76.6196 241.924Z" fill="#FF5BA7"/>
<path d="M249.008 150.398L229.653 81.8248C228.585 78.0379 225.129 75.4229 221.195 75.4229H85.5709L85.5715 75.4252H78.2789C74.3414 75.4252 70.8844 78.0385 69.818 81.8236L35.2998 204.129C34.2446 207.868 37.0541 211.579 40.9389 211.579H168.122C170.745 211.579 173.048 209.836 173.761 207.312L176.943 196.039H210.844C216.337 205.338 226.458 211.579 238.041 211.579C255.477 211.579 269.612 197.444 269.612 180.008C269.611 166.429 261.037 154.854 249.008 150.398Z" fill="url(#paint1_linear_850_384)"/>
<defs>
<linearGradient id="paint0_linear_850_384" x1="72.2567" y1="239.763" x2="321" y2="-119.5" gradientUnits="userSpaceOnUse">
<stop stop-color="white" stop-opacity="0"/>
<stop offset="1" stop-color="#0BBBEF"/>
</linearGradient>
<linearGradient id="paint1_linear_850_384" x1="152.344" y1="211.58" x2="152.344" y2="75.4229" gradientUnits="userSpaceOnUse">
<stop stop-color="#6582FD" stop-opacity="0.6"/>
<stop offset="0.0496" stop-color="#839AFD" stop-opacity="0.57"/>
<stop offset="0.116" stop-color="#A4B5FE" stop-opacity="0.53"/>
<stop offset="0.1902" stop-color="#C1CCFE" stop-opacity="0.486"/>
<stop offset="0.2728" stop-color="#D8DFFE" stop-opacity="0.436"/>
<stop offset="0.3676" stop-color="#E9EDFF" stop-opacity="0.379"/>
<stop offset="0.4818" stop-color="#F6F8FF" stop-opacity="0.31"/>
<stop offset="0.6355" stop-color="#FDFDFF" stop-opacity="0.218"/>
<stop offset="0.9972" stop-color="white" stop-opacity="0"/>
</linearGradient>
</defs>
</svg>
