<svg width="300" height="250" viewBox="0 0 300 250" fill="none" xmlns="http://www.w3.org/2000/svg">
<path d="M300 90.3134C300 45.0737 232.843 8.3999 150 8.3999C67.1572 8.3999 0 45.0737 0 90.3134C0 97.6259 1.75664 104.714 5.05078 111.459C10.9143 123.466 12.3762 137.14 9.46699 150.182C8.27402 155.529 7.6043 161.074 7.51406 166.76C6.79043 212.353 43.8193 249.999 89.4176 249.998C123.662 249.998 152.994 228.984 165.229 199.148C171.949 182.763 186.068 170.484 203.406 166.876C259.879 155.124 300 125.279 300 90.3134Z" fill="url(#paint0_linear_850_478)"/>
<path d="M223.209 64.2127H210.598V25.0059H223.209C225.437 25.0059 227.243 26.8123 227.243 29.04V60.1785C227.243 62.4068 225.437 64.2127 223.209 64.2127Z" fill="#0BBBEF"/>
<path d="M68.5002 104.556H82.9564V25.0059H68.5002C66.2718 25.0059 66.3117 26.8123 66.3117 29.04V100.521C66.3117 102.75 66.2718 104.556 68.5002 104.556Z" fill="#0BBBEF"/>
<path d="M202.961 246.094H90.5935C83.4404 246.094 77.6414 240.295 77.6414 233.142V12.9522C77.6414 5.79903 83.4404 0 90.5935 0H202.962C210.115 0 215.914 5.79903 215.914 12.9522V233.141C215.914 240.295 210.115 246.094 202.961 246.094Z" fill="#D7E6F0"/>
<path d="M77.6407 30.543H215.913V215.55H77.6407V30.543Z" fill="white"/>
<path d="M185.766 189.843C197.582 189.843 207.16 180.265 207.16 168.449C207.16 156.633 197.582 147.055 185.766 147.055C173.95 147.055 164.372 156.633 164.372 168.449C164.372 180.265 173.95 189.843 185.766 189.843Z" fill="#EBEBFF"/>
<path d="M120.149 96.7276H95.428C93.8102 96.7276 92.4983 95.4163 92.4983 93.7979V69.0767C92.4983 67.4589 93.8102 66.147 95.428 66.147H120.149C121.767 66.147 123.079 67.4589 123.079 69.0767V93.7979C123.079 95.4163 121.767 96.7276 120.149 96.7276Z" fill="#EBEBFF"/>
<path d="M158.649 18.1641H134.906C133.288 18.1641 131.977 16.8521 131.977 15.2344C131.977 13.6166 133.288 12.3047 134.906 12.3047H158.649C160.267 12.3047 161.578 13.6166 161.578 15.2344C161.578 16.8521 160.266 18.1641 158.649 18.1641Z" fill="#FF5BA7"/>
<path d="M134.863 226.758V234.18C134.863 235.798 136.175 237.11 137.793 237.11H155.762C157.38 237.11 158.692 235.798 158.692 234.18V226.758C158.692 225.14 157.38 223.828 155.762 223.828H137.793C136.175 223.828 134.863 225.139 134.863 226.758Z" fill="#FF5BA7"/>
<path d="M193.073 233.398H183.393C181.774 233.398 180.463 232.087 180.463 230.469C180.463 228.851 181.774 227.539 183.393 227.539H193.073C194.691 227.539 196.002 228.851 196.002 230.469C196.002 232.087 194.69 233.398 193.073 233.398Z" fill="#FF5BA7"/>
<path d="M110.162 233.398H100.483C98.8643 233.398 97.553 232.087 97.553 230.469C97.553 228.851 98.8643 227.539 100.483 227.539H110.162C111.781 227.539 113.092 228.851 113.092 230.469C113.092 232.087 111.78 233.398 110.162 233.398Z" fill="#FF5BA7"/>
<path d="M105.664 52.7152C104.914 52.7152 104.164 52.4293 103.592 51.8568L102.245 50.5103L100.899 51.8568C99.7552 53.0012 97.8996 53.0012 96.7558 51.8574C95.6115 50.7131 95.6115 48.8586 96.7558 47.7143L100.174 44.2959C100.723 43.7463 101.468 43.4375 102.245 43.4375C103.022 43.4375 103.768 43.7463 104.317 44.2959L107.735 47.7143C108.879 48.8586 108.879 50.7131 107.735 51.8574C107.164 52.4293 106.414 52.7152 105.664 52.7152Z" fill="#9494FF"/>
<path d="M172.265 189.844H122.754C121.135 189.844 119.824 188.532 119.824 186.914C119.824 185.296 121.135 183.984 122.754 183.984H172.265C173.884 183.984 175.195 185.296 175.195 186.914C175.195 188.532 173.884 189.844 172.265 189.844Z" fill="#FFAB66"/>
<path d="M191.308 62.9059C185.94 62.9059 181.574 58.5389 181.574 53.1717C181.574 47.8039 185.941 43.4375 191.308 43.4375C196.676 43.4375 201.042 47.8045 201.042 53.1717C201.042 58.5389 196.676 62.9059 191.308 62.9059ZM191.308 49.2963C189.171 49.2963 187.433 51.0348 187.433 53.1711C187.433 55.3074 189.172 57.0459 191.308 57.0459C193.444 57.0459 195.183 55.3074 195.183 53.1711C195.183 51.0348 193.444 49.2963 191.308 49.2963Z" fill="#FF81B9"/>
<path d="M198.113 69.7107C196.495 69.7107 195.183 68.3988 195.183 66.7811C195.183 64.6447 193.444 62.9062 191.308 62.9062C189.171 62.9062 187.433 64.6447 187.433 66.7811C187.433 68.3988 186.121 69.7107 184.504 69.7107C182.886 69.7107 181.574 68.3988 181.574 66.7811C181.574 61.4133 185.941 57.0469 191.308 57.0469C196.676 57.0469 201.042 61.4139 201.042 66.7811C201.042 68.3988 199.73 69.7107 198.113 69.7107Z" fill="#FF81B9"/>
<path d="M172.265 69.7104H164.941C163.323 69.7104 162.011 68.3985 162.011 66.7808C162.011 65.163 163.323 63.8511 164.941 63.8511H172.265C173.884 63.8511 175.195 65.163 175.195 66.7808C175.195 68.3985 173.884 69.7104 172.265 69.7104Z" fill="#D9D9FF"/>
<path d="M172.265 59.6172H164.941C163.323 59.6172 162.011 58.3053 162.011 56.6875C162.011 55.0697 163.323 53.7578 164.941 53.7578H172.265C173.884 53.7578 175.195 55.0697 175.195 56.6875C175.195 58.3053 173.884 59.6172 172.265 59.6172Z" fill="#D9D9FF"/>
<path d="M172.265 201.636H122.754C121.135 201.636 119.824 200.324 119.824 198.706C119.824 197.088 121.135 195.776 122.754 195.776H172.265C173.884 195.776 175.195 197.088 175.195 198.706C175.195 200.324 173.884 201.636 172.265 201.636Z" fill="#FFAB66"/>
<path d="M196.728 109.917C195.11 109.917 193.799 108.605 193.799 106.987V94.6826C193.799 93.0648 195.11 91.7529 196.728 91.7529C198.346 91.7529 199.658 93.0648 199.658 94.6826V106.987C199.658 108.605 198.346 109.917 196.728 109.917Z" fill="#FF5BA7"/>
<path d="M96.8259 158.133C95.2082 158.133 93.8962 156.821 93.8962 155.204V142.899C93.8962 141.281 95.2082 139.969 96.8259 139.969C98.4437 139.969 99.7556 141.281 99.7556 142.899V155.204C99.7556 156.821 98.4437 158.133 96.8259 158.133Z" fill="#FF5BA7"/>
<path d="M185.766 171.379H107.789C106.171 171.379 104.859 170.067 104.859 168.449V81.4375C104.859 79.8197 106.171 78.5078 107.789 78.5078H185.766C187.384 78.5078 188.696 79.8197 188.696 81.4375V168.449C188.696 170.067 187.384 171.379 185.766 171.379ZM110.718 165.52H182.837V84.3672H110.718V165.52Z" fill="#FFDC84"/>
<path d="M124.12 168.457C124.12 172.933 127.749 176.562 132.226 176.562H161.328C165.804 176.562 169.433 172.933 169.433 168.457C169.433 163.98 165.804 160.352 161.328 160.352H132.226C127.75 160.352 124.12 163.98 124.12 168.457Z" fill="#FF5BA7"/>
<path d="M49.5114 118.301C48.7615 118.301 48.012 118.015 47.4396 117.443L43.6521 113.655L39.8646 117.443C38.7202 118.587 36.8657 118.587 35.7214 117.443C34.5771 116.299 34.5771 114.443 35.7214 113.3L41.5808 107.44C42.7251 106.297 44.5796 106.297 45.724 107.44L51.5833 113.3C52.7277 114.444 52.7277 116.299 51.5833 117.443C51.0109 118.015 50.2614 118.301 49.5114 118.301Z" fill="#0BBBEF"/>
<path d="M262.207 130.664C261.457 130.664 260.707 130.378 260.135 129.806L256.347 126.019L252.56 129.806C251.416 130.95 249.561 130.95 248.417 129.806C247.272 128.662 247.272 126.807 248.417 125.663L254.276 119.804C255.42 118.66 257.275 118.66 258.419 119.804L264.279 125.663C265.423 126.807 265.423 128.662 264.279 129.806C263.706 130.378 262.957 130.664 262.207 130.664Z" fill="#0BBBEF"/>
<path d="M45.4101 55.1762C44.6601 55.1762 43.9107 54.8902 43.3382 54.3184C42.1939 53.174 42.1939 51.3189 43.3382 50.1752L49.1976 44.3158C50.3419 43.1721 52.1964 43.1721 53.3408 44.3158C54.4851 45.4602 54.4851 47.3152 53.3408 48.459L47.4814 54.3184C46.9095 54.8896 46.1601 55.1762 45.4101 55.1762Z" fill="#FF6C6C"/>
<path d="M239.355 186.914C238.605 186.914 237.856 186.628 237.284 186.056C236.139 184.912 236.139 183.057 237.284 181.913L243.143 176.054C244.287 174.91 246.142 174.91 247.286 176.054C248.43 177.198 248.43 179.053 247.286 180.197L241.427 186.056C240.855 186.628 240.105 186.914 239.355 186.914Z" fill="#FF9D33"/>
<path d="M244.648 106.718C243.898 106.718 243.149 106.432 242.576 105.86L238.789 102.073L235.001 105.86C233.857 107.004 232.002 107.004 230.858 105.86C229.714 104.716 229.714 102.861 230.858 101.717L236.718 95.8578C237.862 94.7141 239.716 94.7141 240.861 95.8578L246.72 101.717C247.864 102.862 247.864 104.717 246.72 105.86C246.148 106.432 245.398 106.718 244.648 106.718Z" fill="#FF5BA7"/>
<path d="M202.961 246.094H90.5935C83.4404 246.094 77.6414 240.295 77.6414 233.142V12.9522C77.6414 5.79903 83.4404 0 90.5935 0H202.962C210.115 0 215.914 5.79903 215.914 12.9522V233.141C215.914 240.295 210.115 246.094 202.961 246.094Z" fill="url(#paint1_linear_850_478)"/>
<defs>
<linearGradient id="paint0_linear_850_478" x1="263" y1="375.5" x2="45" y2="22" gradientUnits="userSpaceOnUse">
<stop stop-color="#FF5BA7"/>
<stop offset="0.992" stop-color="white"/>
</linearGradient>
<linearGradient id="paint1_linear_850_478" x1="146.777" y1="246.094" x2="146.777" y2="0" gradientUnits="userSpaceOnUse">
<stop stop-color="#0BBBEF" stop-opacity="0.24"/>
<stop offset="1" stop-color="white" stop-opacity="0"/>
</linearGradient>
</defs>
</svg>
