<svg width="309" height="351" viewBox="0 0 309 351" fill="none" xmlns="http://www.w3.org/2000/svg">
<path d="M79.3651 39.5191C35.5328 50.7151 16.6199 124.859 37.1219 205.125C57.6239 285.391 109.777 341.383 153.609 330.187C160.694 328.377 167.127 324.921 172.848 320.06C183.029 311.408 195.916 306.607 209.272 306.198C214.749 306.031 220.287 305.307 225.818 303.988C270.172 293.405 297.483 248.212 286.198 204.032C277.723 170.853 250.103 147.634 218.167 143.163C200.629 140.708 185.238 130.066 177.451 114.161C152.089 62.3532 113.243 30.8658 79.3651 39.5191Z" fill="url(#paint0_linear_850_333)"/>
<path d="M96.0005 142.933L51.9652 186.968C48.9142 190.019 47.2006 194.157 47.2006 198.471V305.6H112.267V289.333C125.743 289.333 136.667 278.409 136.667 264.933V142.933H96.0005Z" fill="url(#paint1_linear_850_333)"/>
<path d="M173.266 264.933H75.6665C71.1743 264.933 67.5331 261.292 67.5331 256.8V94.1333C67.5331 89.6412 71.1743 86 75.6665 86H173.266C177.758 86 181.4 89.6412 181.4 94.1333V256.8C181.4 261.292 177.758 264.933 173.266 264.933Z" fill="#A5C3DC"/>
<path d="M157 264.933H75.6665C71.1743 264.933 67.5331 261.292 67.5331 256.8V94.1333C67.5331 89.6412 71.1743 86 75.6665 86H157C161.492 86 165.133 89.6412 165.133 94.1333V256.8C165.133 261.292 161.492 264.933 157 264.933Z" fill="#D7E6F0"/>
<path d="M144.8 252.732H87.8667C83.3745 252.732 79.7333 249.091 79.7333 244.599V114.466C79.7333 109.974 83.3745 106.333 87.8667 106.333H144.8C149.292 106.333 152.933 109.974 152.933 114.466V244.599C152.933 249.091 149.292 252.732 144.8 252.732Z" fill="url(#paint2_linear_850_333)"/>
<path d="M124.466 330H34.9998V317.8C34.9998 311.062 40.4618 305.6 47.1997 305.6H112.266C119.004 305.6 124.466 311.062 124.466 317.8V330Z" fill="url(#paint3_linear_850_333)"/>
<path d="M126.5 98.1995H106.166C105.043 98.1995 104.133 97.2891 104.133 96.1661C104.133 95.0432 105.043 94.1328 106.166 94.1328H126.5C127.622 94.1328 128.533 95.0432 128.533 96.1661C128.533 97.2891 127.622 98.1995 126.5 98.1995Z" fill="#A5C3DC"/>
<path d="M216.239 223.866L106.934 171.4L216.239 118.934L219.758 126.266L125.73 171.4L219.758 216.533L216.239 223.866Z" fill="url(#paint4_linear_850_333)"/>
<path d="M218 256.8C238.214 256.8 254.6 240.414 254.6 220.201C254.6 199.987 238.214 183.601 218 183.601C197.787 183.601 181.4 199.987 181.4 220.201C181.4 240.414 197.787 256.8 218 256.8Z" fill="url(#paint5_linear_850_333)"/>
<path d="M218 159.2C238.214 159.2 254.6 142.814 254.6 122.6C254.6 102.386 238.214 86 218 86C197.787 86 181.4 102.386 181.4 122.6C181.4 142.814 197.787 159.2 218 159.2Z" fill="url(#paint6_linear_850_333)"/>
<path d="M245.111 142.933C245.111 136.195 239.649 130.733 232.912 130.733H203.089C196.351 130.733 190.889 136.195 190.889 142.933V147.187C197.585 154.566 207.251 159.2 218.001 159.2C228.75 159.2 238.416 154.566 245.111 147.187V142.933Z" fill="url(#paint7_linear_850_333)"/>
<path d="M218.001 146.999C211.263 146.999 205.801 141.537 205.801 134.799V130.732H230.201V134.799C230.201 141.537 224.739 146.999 218.001 146.999Z" fill="#F7FCFF"/>
<path d="M218.001 126.667C226.985 126.667 234.267 119.384 234.267 110.4C234.267 101.416 226.985 94.1333 218.001 94.1333C209.017 94.1333 201.734 101.416 201.734 110.4C201.734 119.384 209.017 126.667 218.001 126.667Z" fill="#FFC895"/>
<path d="M218 228.333C222.492 228.333 226.133 224.692 226.133 220.2C226.133 215.708 222.492 212.066 218 212.066C213.508 212.066 209.866 215.708 209.866 220.2C209.866 224.692 213.508 228.333 218 228.333Z" fill="white"/>
<path d="M196.31 228.333C200.802 228.333 204.443 224.692 204.443 220.2C204.443 215.708 200.802 212.066 196.31 212.066C191.818 212.066 188.177 215.708 188.177 220.2C188.177 224.692 191.818 228.333 196.31 228.333Z" fill="white"/>
<path d="M239.688 228.333C244.18 228.333 247.822 224.692 247.822 220.2C247.822 215.708 244.18 212.066 239.688 212.066C235.196 212.066 231.555 215.708 231.555 220.2C231.555 224.692 235.196 228.333 239.688 228.333Z" fill="white"/>
<path d="M116.332 213.422C139.54 213.422 158.354 194.608 158.354 171.4C158.354 148.191 139.54 129.377 116.332 129.377C93.1239 129.377 74.3098 148.191 74.3098 171.4C74.3098 194.608 93.1239 213.422 116.332 213.422Z" fill="url(#paint8_linear_850_333)"/>
<path d="M137.067 155.993C138.808 160.119 139.9 164.544 139.665 169.043C139.761 171.887 139.222 174.928 138.386 177.479C140.06 176.805 141.935 176.645 143.703 177.01C143.926 170.871 143.219 164.389 139.68 159.168C138.936 157.95 137.977 156.883 137.004 155.843L137.067 155.993ZM140.448 179.907C136.775 179.981 135.154 183.695 133.134 186.12C130.538 189.414 126.549 191.513 122.44 192.228C118.946 192.467 115.362 192.652 111.909 191.967C106.924 190.981 102.57 187.781 99.9277 183.5C102.323 189.288 107.446 193.718 113.338 195.694C118.98 197.669 125.224 198.186 130.992 196.418C135.52 194.999 140.129 192.914 143.253 189.25C145.202 186.933 145.941 182.775 143.234 180.719C142.442 180.124 141.433 179.859 140.448 179.907H140.448ZM100.688 190.893C100.554 192.656 99.5599 194.297 98.5624 195.601C104.387 199.487 111.634 201.94 118.652 200.657C119.111 200.558 120.816 200.358 120.139 200.259C112.804 199.464 105.669 196.161 100.711 190.675L100.688 190.893ZM111.917 155.135C107.204 154.972 102.509 156.718 98.8195 159.642C93.7001 163.513 89.4756 168.875 88.0618 175.175C86.9648 179.863 86.3279 184.973 88.1378 189.579C89.3051 192.088 91.9559 194.753 94.9893 193.749C97.8063 192.997 98.8363 189.703 97.8622 187.206C96.6594 183.641 94.4545 180.226 94.8453 176.307C95.1089 168.805 99.6675 161.814 105.868 157.714C108.695 156.078 111.99 155.288 115.25 155.245C114.144 155.124 113.029 155.11 111.917 155.135ZM105.246 148.162C98.5707 151.168 92.5396 156.422 90.098 163.474C89.4958 164.806 90.1633 163.853 90.69 163.215C95.1566 157.828 101.476 153.799 108.364 152.492C107.017 151.347 105.744 149.742 105.246 148.162ZM114.766 142.006C112 142.005 108.724 143.714 108.718 146.791C108.544 149.695 111.389 151.691 114.058 151.858C118.183 152.274 122.563 152.984 125.747 155.863C131.234 160.381 134.601 167.501 134.37 174.597C134.215 177.415 133.335 180.168 131.96 182.629C134.964 178.7 136.787 173.828 136.522 168.855C136.537 163.743 134.83 158.499 132.188 154.028C128.735 148.678 123.4 144.507 117.393 142.347C116.546 142.082 115.654 141.971 114.766 142.006Z" fill="white"/>
<path d="M51.9632 219.501L90.2477 181.217C93.4238 178.04 98.5737 178.04 101.75 181.217L103.145 182.612C112.674 192.141 112.674 207.59 103.145 217.119L87.8652 232.399V264.932C87.8652 278.408 76.9411 289.332 63.4652 289.332H47.1985V231.004C47.1985 226.689 48.9121 222.552 51.9632 219.501Z" fill="url(#paint9_radial_850_333)"/>
<path d="M89.2215 182.244C94.0878 187.11 94.0878 195 89.2215 199.867C88.0986 200.989 86.2778 200.989 85.1549 199.867L78.3773 193.089L89.2215 182.244Z" fill="#FFEBE0"/>
<defs>
<linearGradient id="paint0_linear_850_333" x1="326" y1="-148.5" x2="118.5" y2="264.5" gradientUnits="userSpaceOnUse">
<stop stop-color="#0BBBEF"/>
<stop offset="0.992" stop-color="white"/>
</linearGradient>
<linearGradient id="paint1_linear_850_333" x1="59.4999" y1="199.5" x2="86.9999" y2="324" gradientUnits="userSpaceOnUse">
<stop offset="0.166667" stop-color="#FFB58A"/>
<stop offset="0.645833" stop-color="#F0915A" stop-opacity="0.5838"/>
<stop offset="1" stop-color="#F0915A" stop-opacity="0"/>
</linearGradient>
<linearGradient id="paint2_linear_850_333" x1="116.333" y1="66.5" x2="116.333" y2="229" gradientUnits="userSpaceOnUse">
<stop stop-color="white"/>
<stop offset="1" stop-color="#ADBCFE"/>
</linearGradient>
<linearGradient id="paint3_linear_850_333" x1="77.9998" y1="295" x2="78.4998" y2="337" gradientUnits="userSpaceOnUse">
<stop stop-color="#0BBBEF"/>
<stop offset="1" stop-color="white" stop-opacity="0"/>
</linearGradient>
<linearGradient id="paint4_linear_850_333" x1="185" y1="164" x2="154.5" y2="162" gradientUnits="userSpaceOnUse">
<stop offset="0.089805" stop-color="#FF96C7"/>
<stop offset="1" stop-color="#0BBBEF"/>
</linearGradient>
<linearGradient id="paint5_linear_850_333" x1="217" y1="221.5" x2="317" y2="265.5" gradientUnits="userSpaceOnUse">
<stop stop-color="#FF97C8"/>
<stop offset="1" stop-color="white" stop-opacity="0"/>
</linearGradient>
<linearGradient id="paint6_linear_850_333" x1="169" y1="146" x2="354" y2="65.5002" gradientUnits="userSpaceOnUse">
<stop stop-color="#FF82B9"/>
<stop offset="0.864583" stop-color="white"/>
</linearGradient>
<linearGradient id="paint7_linear_850_333" x1="218" y1="140.5" x2="218" y2="168.5" gradientUnits="userSpaceOnUse">
<stop stop-color="#0BBBEF"/>
<stop offset="1" stop-color="#E4F9FF"/>
</linearGradient>
<linearGradient id="paint8_linear_850_333" x1="66.4998" y1="158" x2="152.5" y2="164" gradientUnits="userSpaceOnUse">
<stop stop-color="#9DE9FF"/>
<stop offset="1" stop-color="#0BBBEF"/>
</linearGradient>
<radialGradient id="paint9_radial_850_333" cx="0" cy="0" r="1" gradientUnits="userSpaceOnUse" gradientTransform="translate(89.9998 208.5) rotate(117.801) scale(62.1772 35.5025)">
<stop stop-color="#FFE5D5"/>
<stop offset="1" stop-color="#FFBA8F"/>
</radialGradient>
</defs>
</svg>
