<svg width="138" height="138" viewBox="0 0 138 138" fill="none" xmlns="http://www.w3.org/2000/svg">
<g clip-path="url(#clip0_850_244)">
<path d="M9.20001 110.4H69V115H9.20001V110.4Z" fill="#FBFBFB"/>
<path d="M39.1 131.1C35.2895 131.1 32.2 128.01 32.2 124.2C32.2 120.389 35.2895 117.3 39.1 117.3C42.9105 117.3 46 120.389 46 124.2C46 128.01 42.9105 131.1 39.1 131.1ZM39.1 121.9C37.8298 121.9 36.8 122.93 36.8 124.2C36.8 125.47 37.8298 126.5 39.1 126.5C40.3702 126.5 41.4 125.47 41.4 124.2C41.4 122.93 40.3702 121.9 39.1 121.9Z" fill="#FBFBFB"/>
<path d="M73.6 126.5C73.6 130.311 70.5105 133.4 66.7 133.4H11.5C7.6895 133.4 4.6 130.311 4.6 126.5V11.5C4.6 7.6895 7.6895 4.6 11.5 4.6H16.1V6.9C16.1 10.7105 19.1895 13.8 23 13.8H55.2C59.0105 13.8 62.1 10.7105 62.1 6.9V4.6H66.7C70.5105 4.6 73.6 7.6895 73.6 11.5V27.6H78.2V11.5C78.1921 5.15142 73.0486 0.00786134 66.7 0H11.5C5.15142 0.00786134 0.00786134 5.15142 0 11.5V126.5C0.00786134 132.849 5.15142 137.992 11.5 138H66.7C73.0486 137.992 78.1921 132.849 78.2 126.5V73.6H73.6V126.5ZM20.7 4.6H57.5V6.9C57.5 8.17017 56.4702 9.2 55.2 9.2H23C21.7298 9.2 20.7 8.17017 20.7 6.9V4.6Z" fill="#FBFBFB"/>
<path d="M32.2 32.2002V69.0002H138V32.2002H32.2ZM133.4 64.4002H36.8V36.8002H133.4V64.4002Z" fill="#FBFBFB"/>
<path d="M43.7831 57.1922L48.3 54.5833V59.7999H52.9V54.5833L57.4169 57.1922L59.7169 53.2076L55.2 50.5999L59.7169 47.9922L57.4169 44.0076L52.9 46.6165V41.3999H48.3V46.6165L43.7831 44.0076L41.4831 47.9922L46 50.5999L41.4831 53.2076L43.7831 57.1922Z" fill="#FBFBFB"/>
<path d="M66.7831 57.1922L71.3 54.5833V59.7999H75.9V54.5833L80.4169 57.1922L82.7169 53.2076L78.2 50.5999L82.7169 47.9922L80.4169 44.0076L75.9 46.6165V41.3999H71.3V46.6165L66.7831 44.0076L64.4831 47.9922L69 50.5999L64.4831 53.2076L66.7831 57.1922Z" fill="#FBFBFB"/>
<path d="M89.7831 57.1922L94.3 54.5833V59.7999H98.9V54.5833L103.417 57.1922L105.717 53.2076L101.2 50.5999L105.717 47.9922L103.417 44.0076L98.9 46.6165V41.3999H94.3V46.6165L89.7831 44.0076L87.4831 47.9922L92 50.5999L87.4831 53.2076L89.7831 57.1922Z" fill="#FBFBFB"/>
<path d="M112.783 57.1922L117.3 54.5833V59.7999H121.9V54.5833L126.417 57.1922L128.717 53.2076L124.2 50.5999L128.717 47.9922L126.417 44.0076L121.9 46.6165V41.3999H117.3V46.6165L112.783 44.0076L110.483 47.9922L115 50.5999L110.483 53.2076L112.783 57.1922Z" fill="#FBFBFB"/>
</g>
<defs>
<clipPath id="clip0_850_244">
<rect width="138" height="138" fill="white"/>
</clipPath>
</defs>
</svg>
