<svg width="20" height="19" viewBox="0 0 20 19" fill="none" xmlns="http://www.w3.org/2000/svg">
<path d="M19.4996 7.09466C19.3716 6.70923 19.0205 6.43548 18.6051 6.39903L12.9622 5.90018L10.7309 0.815405C10.5664 0.442757 10.1917 0.201538 9.77538 0.201538C9.35907 0.201538 8.98437 0.442757 8.81984 0.816277L6.58852 5.90018L0.944794 6.39903C0.530122 6.43635 0.179888 6.70923 0.0511604 7.09466C-0.0775671 7.48009 0.0413156 7.90284 0.355005 8.16932L4.62031 11.8113L3.36257 17.2054C3.27054 17.602 3.42865 18.012 3.76666 18.2498C3.94834 18.3776 4.16089 18.4427 4.37524 18.4427C4.56005 18.4427 4.74337 18.3942 4.9079 18.2984L9.77538 15.466L14.6411 18.2984C14.9971 18.5069 15.446 18.4879 15.7832 18.2498C16.1214 18.0112 16.2793 17.6011 16.1873 17.2054L14.9295 11.8113L19.1949 8.17005C19.5085 7.90284 19.6283 7.48081 19.4996 7.09466Z" fill="#FFC107"/>
</svg>
