<?xml version="1.0" encoding="utf-8"?>
<!-- Generator: Adobe Illustrator 17.1.0, SVG Export Plug-In . SVG Version: 6.00 Build 0)  -->
<!DOCTYPE svg PUBLIC "-//W3C//DTD SVG 1.1//EN" "http://www.w3.org/Graphics/SVG/1.1/DTD/svg11.dtd">
<svg width="50" height="30" version="1.1" id="users" xmlns="http://www.w3.org/2000/svg" xmlns:xlink="http://www.w3.org/1999/xlink" x="0px" y="0px"
	 viewBox="0 0 1010 658.4371" enable-background="new 0 0 1010 658.4371" xml:space="preserve">
<g id="users-users">
	<path fill="#323B5A" d="M667.8164,163.4434c0-0.251,0-0.502,0-0.6812c0-11.9077-1.3457-23.3491-3.7129-34.5395
		C648.2686,54.9117,583.0098,0,505.0356,0c-78.6191,0-144.2548,55.6651-159.498,129.8008
		c-2.0806,10.2578-3.228,20.9463-3.2642,31.8496c0,0.3584-0.0717,0.753-0.0717,1.1118c0,82.4927,61.4575,150.5323,141.0273,161.1846
		c7.1553,0.9317,14.3823,1.6133,21.8066,1.6133c6.5279,0,12.8404-0.4297,19.1348-1.2188
		C604.7988,314.8355,667.4395,246.5464,667.8164,163.4434z"/>
	<g>
		<path fill="#323B5A" d="M879.3027,386.2828l-65.3672,87.0468l-65.3671-87.0468c-7.6562,2.6894-14.9551,6.0253-22.2012,9.6474
			c52.4014,52.544,84.9316,125.2822,84.9316,205.9092v56.5977H1010v-84.502C1010,487.1744,955.375,413.648,879.3027,386.2828z"/>
		<path fill="#323B5A" d="M721.2568,165.0577c-3.9091,4.5908-7.4599,9.3969-10.6338,14.5258
			c-11.873,18.8301-18.8671,41.0313-18.8671,64.8824c0,7.2451,0.7188,14.2749,1.9375,21.0898
			c4.25,24.2456,15.5302,45.9087,31.7773,62.9458c8.4473,8.9668,18.2207,16.6055,29.0527,22.7031
			c17.5918,9.791,37.8028,15.3867,59.4121,15.3867c67.4112,0,122.1436-54.6601,122.1436-122.1254
			c0-55.7725-37.4619-102.793-88.5361-117.3907c-4.34-1.1836-8.7872-2.1523-13.2531-2.9414
			c-3.6219-0.5737-7.2451-1.0039-10.9209-1.291c-3.1211-0.2153-6.2226-0.5381-9.4336-0.5381
			C776.7959,122.3047,743.6553,138.9468,721.2568,165.0577z"/>
	</g>
	<g>
		<path fill="#323B5A" d="M130.6616,386.2828l65.4024,87.0468l65.3667-87.0468c7.6572,2.6894,14.956,6.0253,22.2011,9.6474
			c-52.4546,52.544-84.9497,125.2822-84.9497,205.9092v56.5977H0v-84.502C0,487.1744,54.6245,413.648,130.6616,386.2828z"/>
		<path fill="#323B5A" d="M288.7251,165.0577c3.9092,4.5908,7.4961,9.3969,10.688,14.5258
			c11.8359,18.8301,18.7939,41.0313,18.7939,64.8824c0,7.2451-0.7173,14.2749-1.9365,21.0898
			c-4.2143,24.2456-15.4946,45.9087-31.7417,62.9458c-8.4648,8.9668-18.2202,16.6055-29.0522,22.7031
			c-17.5923,9.791-37.8033,15.3867-59.4126,15.3867c-67.4112,0-122.1436-54.6601-122.1436-122.1254
			c0-55.7725,37.4805-102.793,88.5547-117.3907c4.3037-1.1836,8.7334-2.1523,13.3061-2.9414
			c3.4791-0.5737,7.1734-1.0039,10.8497-1.291c3.1206-0.2153,6.2231-0.5381,9.4331-0.5381
			C233.168,122.3047,266.3442,138.9468,288.7251,165.0577z"/>
	</g>
	<path fill="#323B5A" d="M673.2129,399.0865c-17.2324-14.7764-36.4395-27.2227-57.0449-37.1573
		c-7.8555-3.8027-15.799-7.2461-24.084-10.2578l-21.0176,28.1192l-46.896,62.4433l-19.2246,25.5723l-21.7168-28.9434
		l-43.6494-58.248l-21.6636-28.9434c-8.644,3.1914-17.0903,6.8858-25.3218,10.8672c-20.6054,10.0059-39.7041,22.5234-56.956,37.4805
		c-9.5044,8.2129-18.4351,17.2158-26.6665,26.7558c-40.5474,46.627-65.313,107.8516-65.313,175.0645v56.5977h522.6821v-56.5977
		c0-67.752-25.124-129.334-66.2997-176.2832C691.7559,416.1226,682.79,407.3003,673.2129,399.0865z"/>
</g>
</svg>
