<svg width="30" height="27" viewBox="0 0 30 27" fill="none" xmlns="http://www.w3.org/2000/svg">
<path d="M28.3334 0H1.66656C0.74829 0 0 0.74829 0 1.66656V4.99999C0 5.91827 0.74829 6.66656 1.66656 6.66656H28.3334C29.2517 6.66656 30 5.91827 30 4.99999V1.66656C30 0.74829 29.2517 0 28.3334 0Z" fill="#0BBBEF"/>
<path d="M28.3334 10H1.66656C0.74829 10 0 10.7483 0 11.6666V15C0 15.9183 0.74829 16.6666 1.66656 16.6666H28.3334C29.2517 16.6666 30 15.9183 30 15V11.6666C30 10.7483 29.2517 10 28.3334 10Z" fill="#0BBBEF"/>
<path d="M28.3334 20H1.66656C0.74829 20 0 20.7483 0 21.6666V25C0 25.9183 0.74829 26.6666 1.66656 26.6666H28.3334C29.2517 26.6666 30 25.9183 30 25V21.6666C30 20.7483 29.2517 20 28.3334 20Z" fill="#0BBBEF"/>
</svg>
